<svg width="34" height="35" viewBox="0 0 34 35" fill="none" xmlns="http://www.w3.org/2000/svg">
<rect x="0.5" y="1.27498" width="33" height="33" rx="9.5" fill="white" stroke="#B6B6B6"/>
<path d="M14.0031 7.62497H20.3311L19.2671 20.085H15.0391L14.0031 7.62497ZM17.1671 27.477C16.2337 27.477 15.4684 27.197 14.8711 26.637C14.2737 26.0583 13.9751 25.3583 13.9751 24.537C13.9751 23.697 14.2737 23.0063 14.8711 22.465C15.4684 21.9236 16.2337 21.653 17.1671 21.653C18.1004 21.653 18.8564 21.9236 19.4351 22.465C20.0324 23.0063 20.3311 23.697 20.3311 24.537C20.3311 25.3583 20.0324 26.0583 19.4351 26.637C18.8377 27.197 18.0817 27.477 17.1671 27.477Z" fill="#AEA5A5"/>
</svg>
