<svg width="1900" height="98" viewBox="0 0 1900 98" fill="none" xmlns="http://www.w3.org/2000/svg">
<path d="M-2501.38 18.7562C-2516.85 17.5153 -2520.72 15.0334 -2522.12 5.7265C-2521.77 5.7265 -2521.77 5.41627 -2521.42 5.41627C-2510.52 7.27765 -2500.33 4.48557 -2490.14 2.31396C-2472.91 -1.09857 -2470.1 -0.478105 -2456.74 9.44927C-2455.68 8.82881 -2454.63 7.89812 -2453.93 7.27766C-2447.95 1.07305 -2440.22 -0.478107 -2431.78 1.07305C-2426.16 2.00374 -2420.88 3.55489 -2415.26 4.17535C-2407.52 5.10604 -2400.14 5.72651 -2392.06 6.34697C-2391.7 14.413 -2396.98 17.8255 -2412.09 18.446C-2414.2 22.1687 -2414.91 27.7529 -2421.23 28.6836C-2425.45 29.304 -2429.67 29.304 -2433.19 25.271C-2432.48 24.0301 -2431.78 23.0994 -2431.08 21.8585C-2428.97 18.1357 -2430.02 14.7232 -2433.54 12.8618C-2437.05 11.3107 -2442.33 11.9311 -2443.73 15.3436C-2445.14 17.8255 -2445.84 21.238 -2445.49 23.7199C-2443.38 33.9575 -2431.78 39.5416 -2420.18 34.8882C-2412.45 31.7859 -2405.77 27.1324 -2399.09 22.7892C-2391.35 17.8255 -2383.97 12.2413 -2376.24 7.58788C-2372.02 5.10604 -2366.75 3.24466 -2361.82 1.69351C-2350.22 -1.71903 -2341.08 2.00374 -2333.35 9.7595C-2332.29 11.0004 -2331.24 11.9311 -2329.83 13.7925C-2328.43 12.5516 -2327.72 11.6209 -2326.67 10.38C-2317.53 0.142355 -2305.93 -2.64972 -2292.22 3.24466C-2283.43 6.96743 -2275.7 12.5516 -2267.61 17.5153C-2260.23 22.1687 -2253.2 27.1324 -2246.17 31.7859C-2241.25 34.8882 -2235.62 36.4393 -2229.65 36.1291C-2220.15 35.5086 -2213.12 28.3733 -2213.83 19.9971C-2214.18 15.6539 -2216.29 12.8618 -2220.15 12.2413C-2223.32 11.6209 -2226.48 12.2413 -2228.24 14.7232C-2230.7 17.8255 -2229.65 20.6176 -2226.83 23.4096C-2226.48 23.7199 -2226.48 24.3403 -2226.13 24.6506C-2234.22 32.0961 -2241.6 29.9245 -2246.87 18.446C-2253.2 18.1357 -2259.88 18.446 -2264.45 13.4823C-2266.21 11.3107 -2267.26 8.51858 -2269.37 4.17535C-2255.31 7.89812 -2244.41 3.24466 -2232.81 1.38327C-2217.69 -1.09857 -2214.18 -0.167876 -2202.93 8.82881C-2202.23 8.51858 -2201.52 8.20835 -2200.82 7.89812C-2193.79 0.142357 -2184.65 -1.09857 -2174.1 0.762809C-2168.13 2.00373 -2162.15 3.55489 -2156.17 4.48558C-2151.25 5.10604 -2146.33 4.79581 -2141.41 4.79581C-2140 4.79581 -2138.6 4.79581 -2137.19 4.79581C-2139.3 15.0334 -2142.46 17.205 -2158.28 18.1357C-2160.39 22.1687 -2161.45 27.7529 -2168.48 28.3733C-2172.35 28.6836 -2176.56 28.9938 -2178.67 24.6506C-2178.32 24.0301 -2177.97 23.0994 -2177.27 22.1687C-2175.16 19.6869 -2174.45 17.205 -2176.92 14.7232C-2179.02 12.2413 -2181.84 11.6209 -2185 11.9311C-2188.87 12.5516 -2190.63 15.0334 -2191.33 18.1357C-2193.44 25.8915 -2185.35 35.1984 -2175.86 36.1291C-2170.24 36.7496 -2164.96 35.5086 -2160.74 32.7166C-2153.01 28.0631 -2145.98 23.0994 -2138.25 18.1357C-2131.92 14.1027 -2125.59 9.7595 -2119.26 6.03673C-2112.23 2.00373 -2104.5 0.142356 -2096.06 0.142356C-2057.39 0.142356 -1736.37 0.452586 -1697.7 0.142356C-1687.16 0.142356 -1677.67 2.31397 -1669.23 7.89812C-1659.74 13.7925 -1650.95 20.3073 -1641.81 26.2017C-1636.54 29.6143 -1631.26 32.7166 -1625.29 34.8882C-1614.74 38.9212 -1603.84 33.9575 -1600.33 24.3403C-1598.92 20.9278 -1599.62 17.8255 -1601.73 15.0334C-1604.19 11.6209 -1609.12 10.6902 -1612.63 12.8618C-1616.15 15.0334 -1616.85 17.8255 -1614.39 21.8585C-1614.04 22.7892 -1612.98 23.4096 -1612.63 24.0301C-1620.01 32.0961 -1627.75 29.9245 -1633.37 18.446C-1639.35 17.8255 -1646.38 18.4459 -1650.95 13.172C-1652.71 11.0004 -1653.76 8.20835 -1654.46 5.10604C-1642.86 7.89812 -1632.32 3.86512 -1621.77 2.00374C-1603.84 -1.4088 -1602.44 -0.788342 -1589.08 9.13904C-1588.73 9.13904 -1588.38 9.13904 -1588.38 9.13904C-1580.29 0.142349 -1569.74 -1.09857 -1558.14 2.00374C-1556.03 2.6242 -1553.92 2.93443 -1551.46 3.55489C-1542.68 5.41627 -1533.54 7.89812 -1524.4 4.79581C-1525.1 15.0334 -1529.32 17.8255 -1545.14 19.0664C-1547.6 22.7892 -1548.3 28.6836 -1555.33 29.304C-1559.2 29.6143 -1563.42 29.6143 -1565.88 25.5813C-1565.17 24.6506 -1564.47 23.7199 -1563.77 22.7892C-1561.31 19.0664 -1562.36 15.6539 -1565.88 13.7925C-1569.39 11.9311 -1573.96 12.8618 -1576.42 15.6539C-1578.88 18.7562 -1579.59 21.8585 -1578.18 25.5813C-1574.31 35.5086 -1563.06 40.4723 -1552.52 35.5086C-1544.08 31.7859 -1536.7 26.5119 -1528.61 21.5483C-1520.53 16.5846 -1512.79 11.3107 -1504.71 6.34697C-1501.55 4.48558 -1497.68 3.24465 -1493.81 2.31396C-1484.32 -0.478114 -1476.23 1.6935 -1469.2 7.58788C-1466.74 9.7595 -1464.63 11.9311 -1461.82 14.7232C-1461.12 13.7925 -1460.77 13.172 -1460.42 12.5516C-1450.57 0.142356 -1436.51 -2.64972 -1420.69 6.03673C-1410.5 11.6209 -1401.36 18.7562 -1391.51 24.9608C-1385.19 28.9938 -1378.51 33.0268 -1371.48 35.8189C-1362.34 39.5416 -1353.55 36.7496 -1348.98 29.304C-1347.22 26.5119 -1346.52 22.7892 -1346.52 19.3766C-1346.52 16.2743 -1348.63 13.7925 -1352.49 12.8618C-1355.66 12.2413 -1358.82 12.8618 -1360.58 15.3436C-1362.69 18.1357 -1362.69 20.9278 -1359.88 23.4096C-1359.17 24.0301 -1359.17 24.6506 -1358.82 25.271C-1367.26 32.7166 -1374.64 30.5449 -1379.21 20.6176C-1385.89 18.446 -1391.87 17.205 -1396.79 14.413C-1399.25 13.172 -1399.95 9.44927 -1401.36 7.27766C-1399.95 6.34697 -1399.6 5.7265 -1399.25 5.7265C-1387.65 8.20835 -1377.1 4.17534 -1366.2 2.31396C-1354.25 -0.167883 -1343.71 0.762815 -1335.97 10.38C-1334.57 9.44927 -1333.86 8.82881 -1333.16 8.20835C-1326.83 1.69351 -1318.75 0.142357 -1309.61 1.69351C-1304.68 2.6242 -1299.76 3.55489 -1294.84 4.79581C-1287.11 6.6572 -1279.73 7.89812 -1271.64 5.7265C-1270.59 15.0334 -1275.16 18.1357 -1291.68 19.3766C-1293.44 23.4096 -1294.49 28.6836 -1301.17 29.304C-1305.39 29.9245 -1309.61 29.9245 -1312.42 25.5813C-1311.72 24.3403 -1310.31 23.0994 -1309.61 21.5483C-1308.2 18.1357 -1309.96 15.0334 -1313.47 13.4823C-1316.99 11.9311 -1321.21 12.8618 -1322.96 15.9641C-1325.78 19.9971 -1325.78 24.3403 -1322.96 28.6836C-1318.04 36.7495 -1307.85 39.8519 -1298.36 35.8189C-1291.68 33.0268 -1285.7 29.304 -1280.08 25.271C-1271.64 19.9971 -1263.55 14.1027 -1255.12 8.82881C-1251.95 6.96743 -1248.44 5.41627 -1244.57 4.17535C-1230.16 -0.788337 -1220.67 1.6935 -1211.18 12.2413C-1210.47 12.8618 -1209.77 13.7925 -1208.71 15.0334C-1206.61 13.172 -1204.85 11.3107 -1203.09 9.7595C-1194.3 1.6935 -1185.16 -0.788344 -1173.21 3.86511C-1165.12 6.96742 -1157.74 11.6209 -1150.36 16.2743C-1141.57 21.5483 -1133.49 27.7529 -1124.7 33.0268C-1120.83 35.1984 -1115.91 36.7496 -1111.34 37.37C-1102.2 38.3007 -1093.76 33.0268 -1092 24.9608C-1091.3 22.1687 -1092.36 19.0664 -1093.76 16.5846C-1095.52 13.172 -1100.44 12.2413 -1103.96 14.1027C-1107.82 15.9641 -1108.88 19.6869 -1106.42 23.4096C-1106.07 24.3403 -1105.36 24.9608 -1104.66 25.8915C-1112.04 33.6473 -1119.78 31.4756 -1125.05 21.238C-1131.38 19.3766 -1137 18.1357 -1141.92 15.6539C-1144.73 14.413 -1145.79 10.6902 -1147.55 7.89812C-1145.79 6.96743 -1145.09 6.34696 -1144.38 6.65719C-1136.3 8.51858 -1128.92 7.27765 -1121.18 5.41627C-1117.67 4.48557 -1114.15 4.17535 -1110.64 3.24466C-1099.39 0.452587 -1089.54 2.00374 -1081.81 11.3107C-1080.4 10.38 -1079 9.44926 -1077.94 8.51857C-1071.97 2.31396 -1064.23 1.07305 -1055.8 2.6242C-1050.52 3.55489 -1045.6 4.79581 -1040.33 5.7265C-1032.59 6.6572 -1024.51 7.27765 -1016.42 8.20835C-1017.48 16.8948 -1021.35 19.3766 -1036.46 20.6176C-1043.49 32.0961 -1049.47 33.9575 -1057.91 27.1324C-1057.2 26.2017 -1056.5 25.271 -1055.8 24.0301C-1053.69 20.3073 -1054.39 16.8948 -1057.91 15.0334C-1061.07 13.172 -1065.99 14.1027 -1068.45 16.8948C-1070.91 19.9971 -1071.62 23.0994 -1070.21 26.8222C-1066.69 35.8189 -1057.2 40.4723 -1046.66 37.6802C-1043.14 36.7496 -1039.63 35.1984 -1036.81 33.337C-1028.73 28.0631 -1020.64 22.479 -1012.56 17.205C-1007.99 14.1027 -1003.42 11.3106 -998.847 8.51857C-991.113 4.17534 -982.677 2.00374 -973.185 2.00374C-935.571 2.31397 -887.956 2.31397 -849.99 2.00374C-837.335 2.00374 -826.085 5.10604 -816.242 11.6209C-806.399 17.8255 -797.26 24.6506 -787.417 31.1654C-783.901 33.6473 -779.682 35.5086 -775.815 37.0598C-765.972 40.4723 -756.13 36.7495 -751.56 28.6836C-749.45 25.271 -749.45 21.5483 -751.208 17.8255C-753.317 14.1027 -757.887 12.5516 -761.754 14.413C-765.972 16.2743 -767.027 19.6869 -764.566 23.7199C-764.215 24.6506 -763.512 25.271 -762.809 26.2017C-769.488 34.2677 -777.573 31.7859 -783.549 20.3073C-789.525 19.9971 -795.853 20.3073 -800.423 15.9641C-802.884 13.4823 -804.642 11.0004 -804.29 6.65719C-792.338 10.0697 -781.792 6.03673 -771.246 3.86511C-758.942 1.38327 -747.693 1.07305 -739.607 11.9311C-738.201 10.6902 -737.146 10.38 -736.443 9.44927C-730.116 2.93443 -722.031 1.38327 -712.891 2.93442C-707.969 3.86512 -703.048 4.79581 -698.126 6.03673C-690.392 7.89811 -683.01 9.44926 -674.925 6.96742C-673.167 15.9641 -678.791 19.6869 -694.962 20.6176C-697.071 24.3403 -697.774 29.9245 -704.102 30.545C-708.321 31.1654 -712.539 31.1654 -715.703 27.1324C-715 26.2017 -714.648 25.271 -713.945 24.3403C-711.836 21.8585 -711.485 19.0664 -713.945 16.8948C-715.703 15.3436 -718.867 14.413 -721.327 14.413C-724.843 14.413 -726.601 16.5846 -727.655 19.3766C-730.468 27.7529 -723.085 37.37 -712.891 38.3007C-706.563 38.9212 -700.587 37.37 -695.314 33.9575C-687.58 28.9938 -680.198 23.7199 -672.464 18.7562C-665.081 14.1027 -658.051 9.13904 -649.965 5.7265C-635.904 -0.788337 -624.303 2.31397 -614.46 13.4823C-613.757 14.1027 -613.054 15.0334 -612 15.9641C-610.593 14.7232 -609.539 13.7925 -608.484 12.5516C-599.344 2.6242 -588.798 -0.167878 -575.439 5.10604C-567.002 8.51858 -559.269 13.7925 -551.535 18.7562C-543.801 23.7199 -536.419 28.9938 -528.685 33.9575C-523.412 37.37 -517.787 38.9212 -511.108 38.3007C-501.265 37.37 -493.883 28.9938 -495.992 20.3073C-496.695 17.205 -498.804 14.413 -502.32 14.413C-504.781 14.413 -507.945 15.3437 -509.702 16.5846C-512.514 18.7562 -512.163 21.8585 -509.351 24.6506C-508.647 25.271 -508.296 26.2017 -507.944 27.1324C-517.084 34.2677 -523.763 32.0961 -528.685 20.6176C-534.661 19.6869 -541.692 20.9278 -546.262 15.6539C-548.02 13.4823 -549.074 10.6902 -550.129 7.58788C-536.419 10.38 -524.115 5.10605 -511.811 3.24466C-501.968 1.69351 -493.531 2.93442 -486.852 10.0697C-486.501 10.6902 -485.446 11.0004 -484.743 11.3107C-484.04 10.6902 -483.337 10.38 -482.634 10.0697C-475.955 2.62419 -467.166 1.38327 -457.674 2.93442C-452.753 3.86512 -447.832 5.41627 -442.91 6.03673C-435.176 6.96742 -427.442 7.58789 -419.708 8.20835C-420.06 16.5846 -423.575 19.0664 -440.098 20.6176C-446.425 31.7859 -452.05 33.6472 -460.838 27.1324C-460.135 25.8915 -459.432 24.6506 -458.729 23.4096C-456.269 20.3073 -457.675 17.8255 -460.487 15.3436C-462.948 13.172 -467.518 13.172 -470.681 15.3436C-474.197 18.1357 -474.9 21.5483 -474.197 25.5813C-471.736 35.5086 -459.432 41.0928 -448.534 36.7496C-442.207 34.2677 -436.583 30.5449 -430.606 26.8222C-420.763 20.6176 -411.271 14.1027 -401.428 7.89812C-394.749 3.55489 -386.664 2.31396 -378.227 2.31396C-339.909 2.62419 -301.592 2.62419 -263.626 2.31396C-250.619 2.31396 -240.073 5.7265 -229.879 12.2413C-222.145 17.205 -215.114 22.7892 -207.38 27.7529C-202.107 31.1654 -196.482 34.5779 -190.155 37.0598C-179.257 41.403 -167.656 36.1291 -164.844 26.512C-163.79 22.7892 -164.493 19.6869 -166.953 16.5846C-169.414 13.7925 -174.336 13.172 -177.5 15.3436C-180.664 17.5153 -181.366 20.3073 -179.257 23.7199C-178.554 24.6506 -177.851 25.8915 -177.148 26.8222C-184.882 34.2677 -191.209 32.0961 -198.24 20.6176C-213.708 19.0664 -217.223 16.8948 -218.629 7.58788C-217.926 7.27765 -216.872 6.65719 -216.169 6.96742C-207.38 9.44926 -198.943 6.65719 -190.506 5.10604C-188.397 4.79581 -186.288 4.17534 -183.827 3.86511C-172.226 1.07304 -161.68 2.00374 -153.947 11.3107C-152.892 11.0004 -152.189 11.0004 -151.837 11.0004C-144.455 2.93443 -134.963 1.38327 -123.714 3.86511C-120.55 4.48558 -117.035 5.10604 -113.871 5.7265C-105.434 7.89812 -96.9973 9.13904 -88.209 7.27766C-88.209 16.8948 -93.1306 19.9971 -108.598 20.9278C-111.059 24.6506 -111.762 30.545 -118.793 31.1654C-122.66 31.4756 -124.769 31.1654 -129.69 27.7529C-128.987 26.5119 -127.933 25.5813 -127.23 24.3403C-125.121 20.9278 -126.175 17.8255 -129.339 15.9641C-132.503 14.1027 -138.127 14.413 -139.885 17.5153C-141.291 20.3073 -142.346 23.7199 -141.994 26.512C-139.885 36.4393 -128.284 42.0235 -117.386 37.9905C-111.41 35.8189 -106.137 32.7166 -100.864 29.304C-92.7788 24.3403 -85.397 18.446 -77.3115 13.4823C-72.0386 10.0697 -66.4136 7.27765 -60.4375 5.10604C-48.4854 1.07304 -37.9395 3.86512 -29.854 12.8618C-28.7993 14.1027 -27.7449 15.0334 -26.3386 16.8948C-24.9324 15.3436 -23.8777 14.1027 -22.4714 12.8618C-14.0344 3.86512 -3.13696 0.762815 9.16675 5.7265C17.9551 9.44927 26.0403 14.7232 34.1257 19.3766C41.8596 24.0301 48.8904 29.304 56.2727 34.2677C59.4365 36.1291 62.9519 37.9905 66.8188 38.9212C80.1772 42.3337 93.1841 32.0961 89.6687 20.9278C88.614 17.205 85.8018 15.3436 81.9348 15.3436C78.4194 15.3436 75.2556 16.5846 74.9041 19.6869C74.5525 22.1687 75.9587 25.271 77.0134 29.304C75.6072 32.0961 71.7405 32.4063 67.1704 32.0961C60.4912 31.4756 58.7334 27.1324 56.9758 22.1687C50.9998 21.238 43.9688 22.1687 39.3987 17.205C37.6411 15.0334 36.5864 12.2413 34.8289 9.13904C41.8596 8.8288 47.8357 9.13904 53.4602 8.20835C60.491 7.27765 67.5217 5.41627 74.9041 4.17535C83.3411 2.93443 91.4263 3.55489 97.4023 9.7595C99.1599 11.3107 100.918 13.4823 101.27 15.3436C102.676 28.0631 103.027 40.4723 88.614 48.2281C87.9109 48.5383 87.208 48.8485 85.8018 49.469C88.614 51.6406 90.7234 53.1918 92.8325 54.7429C98.457 59.7066 102.324 64.9805 101.621 72.4261C101.27 74.9079 101.621 77.3897 101.621 79.8716C101.621 88.558 94.5903 95.3831 84.7473 96.0036C80.8804 96.3138 76.6619 96.3138 73.1465 95.6933C61.1943 93.5217 49.2419 89.799 36.5867 91.9706C37.2898 82.3534 41.1567 79.8716 56.9758 78.0102C62.9519 66.8419 68.2249 65.2908 78.0679 71.4954C77.7163 72.4261 77.0134 73.667 76.3103 74.2874C74.2012 76.7693 73.498 79.8716 75.9587 81.733C78.0679 83.2841 81.2319 84.2148 84.0442 84.2148C87.5596 84.2148 89.3171 81.733 90.0203 78.9409C92.8325 68.3931 80.5286 57.8452 68.2249 60.9475C63.6548 61.8782 59.085 64.0498 55.218 66.2215C47.4841 71.1851 40.1021 76.4591 32.3682 81.4227C27.7981 84.525 23.2283 87.3171 18.6582 90.1092C2.83911 99.1059 -12.6287 99.7263 -26.3386 82.9739C-27.3933 83.9046 -28.0959 84.8353 -28.7991 85.766C-38.2905 96.3138 -49.54 99.7264 -62.8984 93.5217C-73.093 88.8683 -82.2332 82.3534 -91.373 76.7693C-98.4038 72.4261 -105.083 67.4624 -112.817 63.4294C-123.714 57.8452 -132.854 59.7066 -139.533 67.7726C-142.346 71.4954 -143.752 75.2181 -141.643 79.5614C-139.885 83.9046 -135.315 85.766 -130.745 83.9046C-126.175 82.3534 -125.121 78.6307 -127.933 74.2874C-128.284 73.3568 -128.987 72.7363 -129.339 71.8056C-120.902 64.3601 -114.574 66.2215 -108.598 77.7C-99.4583 78.6307 -89.2634 78.9409 -87.5059 89.799C-88.209 90.4194 -88.5605 91.0399 -88.9121 90.7297C-99.4583 89.799 -109.653 91.6604 -119.496 94.1422C-122.308 94.7627 -125.472 95.0729 -128.636 95.3831C-137.776 96.3138 -145.861 94.4524 -151.486 87.3171C-152.54 87.6274 -153.595 87.6274 -154.298 88.2478C-161.329 96.3138 -171.172 96.6241 -181.015 95.0729C-192.967 93.2115 -204.919 89.1785 -217.575 91.3501C-216.168 81.4228 -212.653 79.2511 -197.186 77.3898C-190.155 66.2215 -185.233 64.6703 -176.093 70.8749C-176.796 72.1158 -177.5 73.3568 -178.203 74.5977C-180.312 78.3204 -179.609 80.8023 -176.093 82.9739C-172.578 85.1455 -168.359 84.8353 -165.547 81.733C-162.735 78.6307 -162.032 74.9079 -163.438 71.1851C-166.954 61.8782 -178.554 56.6043 -188.397 61.2578C-198.24 65.9112 -207.029 72.1158 -216.169 77.7C-223.199 82.0432 -230.23 86.6967 -237.612 91.0399C-243.588 94.4524 -250.619 95.6933 -257.65 95.6933C-297.022 95.6933 -336.394 95.3831 -375.766 95.6933C-386.312 95.6933 -395.804 93.2115 -404.241 87.9376C-414.084 81.4228 -423.927 74.5977 -433.77 68.0828C-438.34 65.2908 -443.261 62.4987 -448.534 60.9475C-458.729 57.2248 -470.33 62.8089 -472.791 72.4261C-473.494 74.5977 -473.142 77.3898 -472.088 79.5614C-470.33 83.9046 -465.76 85.4557 -461.19 83.5944C-456.268 81.4227 -455.565 78.6307 -458.729 73.9772C-459.081 73.0465 -459.784 72.1158 -460.135 71.4954C-452.05 64.3601 -445.371 66.2215 -440.098 76.1488C-433.77 78.3204 -427.794 79.5614 -422.521 82.3534C-420.06 83.5944 -419.357 87.3171 -417.951 89.4887C-419.006 90.4194 -419.357 91.0399 -419.708 90.7297C-430.958 89.4887 -441.504 91.9706 -452.05 94.1422C-454.159 94.4524 -456.269 95.0729 -458.729 95.0729C-468.572 96.3138 -477.361 94.4524 -483.337 85.766C-485.094 87.3171 -485.798 88.5581 -486.852 89.4887C-491.071 93.5217 -496.344 95.6934 -502.671 95.3831C-507.944 95.0729 -513.218 94.7627 -518.491 93.5217C-528.334 91.3501 -537.825 88.8683 -548.02 91.3501C-549.074 80.1818 -539.231 77.7 -527.982 77.7C-522.006 65.9112 -516.381 63.7396 -506.89 70.8749C-507.593 71.8056 -508.296 72.7363 -508.999 73.9772C-511.46 78.3204 -510.054 82.0432 -505.484 83.5944C-501.265 85.1455 -496.695 82.9739 -494.938 78.6307C-491.422 68.7033 -502.671 57.535 -514.624 59.7066C-518.842 60.3271 -523.412 61.8782 -526.927 64.0498C-536.067 69.634 -544.504 75.8386 -553.293 81.4227C-559.269 85.1455 -565.245 89.1785 -571.573 91.9706C-586.689 98.4854 -598.289 96.0036 -608.484 83.9046C-608.835 83.2841 -609.538 82.9739 -610.593 82.0432C-611.648 83.2841 -612.702 84.5251 -613.757 85.4558C-623.6 95.6934 -634.849 98.4854 -648.208 92.591C-658.051 88.2478 -666.839 81.733 -675.979 76.1488C-683.713 71.4954 -690.744 66.2215 -698.829 62.1885C-708.672 57.2248 -718.515 59.3964 -723.788 67.1521C-725.897 70.2544 -726.249 74.2875 -726.249 77.7C-726.249 81.1125 -723.085 83.9046 -719.218 84.2148C-716.758 84.2148 -713.594 82.9739 -711.836 81.4227C-709.375 78.9409 -710.078 75.8386 -712.539 73.3568C-712.89 72.7363 -713.242 72.1158 -713.594 71.4954C-705.508 64.0498 -698.829 65.9112 -692.501 77.3898C-676.682 79.2511 -673.518 81.4228 -671.761 91.3501C-684.064 88.8683 -695.665 92.5911 -707.266 94.7627C-711.484 95.6934 -716.054 95.3831 -720.625 95.3831C-727.655 95.3831 -732.225 91.0399 -736.795 86.0762C-745.583 97.5547 -757.536 96.624 -770.191 93.832C-775.464 92.9013 -780.386 91.3501 -785.659 90.7297C-790.932 90.1092 -796.205 90.7297 -801.478 90.7297C-801.126 82.0432 -797.26 79.5614 -780.737 77.3898C-775.113 66.2215 -768.433 64.0498 -759.645 71.4954C-760.348 72.1158 -760.699 73.0465 -761.403 73.667C-764.215 77.7 -763.864 80.8023 -759.645 82.9739C-755.778 85.1455 -751.208 84.2148 -748.747 80.4921C-747.693 78.3204 -746.99 75.8386 -746.99 73.3568C-747.693 64.3601 -759.293 57.2248 -769.136 60.0168C-775.464 61.8782 -781.44 64.9805 -786.713 68.3931C-795.15 73.3568 -802.884 79.2511 -810.618 84.8353C-821.515 92.591 -833.819 95.6934 -848.232 95.3831C-885.495 94.7627 -932.407 95.0729 -969.67 95.3831C-980.567 95.3831 -990.059 92.9013 -998.847 87.3171C-1008.69 80.8023 -1018.18 73.9772 -1028.38 67.4624C-1032.95 64.3601 -1038.57 62.1885 -1043.84 60.0168C-1052.98 56.2941 -1065.64 64.0498 -1067.05 73.0465C-1067.4 75.8386 -1065.99 78.9409 -1064.58 81.4227C-1062.48 84.525 -1057.91 84.8353 -1054.74 82.9739C-1050.87 80.8023 -1049.82 78.0102 -1052.28 73.9772C-1052.98 73.0465 -1053.69 72.1158 -1054.39 71.1851C-1046.3 63.7396 -1039.63 65.601 -1033.3 77.0795C-1024.51 78.3204 -1013.96 78.3204 -1012.21 89.4887C-1012.91 90.1092 -1013.26 90.4194 -1013.61 90.4194C-1024.16 89.1785 -1034.35 91.3501 -1044.2 93.5217C-1046.66 94.1422 -1049.12 94.4524 -1051.58 94.7627C-1061.77 96.0036 -1070.91 94.7627 -1076.19 86.3864C-1077.24 86.6967 -1077.94 86.6967 -1078.29 87.0069C-1085.68 96.6241 -1096.22 95.6934 -1107.12 94.4524C-1110.64 94.1422 -1114.15 92.591 -1117.67 92.2808C-1125.75 91.3501 -1133.84 90.4194 -1141.92 89.799C-1142.98 80.8023 -1132.78 77.3898 -1121.89 78.0102C-1115.56 65.9112 -1110.28 64.0498 -1100.44 70.8749C-1101.14 72.1158 -1101.85 73.3568 -1102.55 74.5977C-1104.66 78.3204 -1103.96 81.1125 -1099.74 83.2841C-1096.22 85.1455 -1091.3 84.5251 -1089.54 81.1125C-1088.14 78.3204 -1087.43 74.9079 -1088.14 71.8056C-1089.9 64.0498 -1101.5 56.2941 -1111.69 60.6373C-1116.61 62.4987 -1121.53 64.6703 -1125.75 67.4624C-1133.84 72.7363 -1141.57 78.6307 -1149.66 83.9046C-1154.58 87.0069 -1159.85 90.1092 -1165.48 92.591C-1179.89 98.7957 -1191.49 96.3138 -1201.33 85.4558C-1202.04 84.5251 -1203.09 83.5944 -1204.14 82.3534C-1205.55 83.9046 -1206.96 85.4557 -1208.01 86.6967C-1217.5 96.3138 -1228.4 99.1059 -1241.41 92.9013C-1251.6 88.2478 -1261.09 81.4228 -1270.59 75.5284C-1278.32 70.8749 -1285.35 65.601 -1293.44 61.8782C-1302.58 57.535 -1312.07 60.0168 -1316.99 67.1521C-1319.1 69.9442 -1319.8 73.667 -1319.8 76.7693C-1320.15 80.8023 -1316.99 83.9046 -1313.12 84.2148C-1310.66 84.2148 -1307.5 83.2841 -1305.74 81.733C-1302.93 78.9409 -1303.63 75.8386 -1306.44 73.0465C-1306.79 72.7363 -1306.79 72.1158 -1307.15 71.8056C-1299.76 63.7396 -1292.03 65.9112 -1286.4 77.3898C-1277.26 78.3204 -1267.07 78.6307 -1265.31 89.4887C-1266.37 90.1092 -1266.72 90.7297 -1267.07 90.7297C-1276.91 89.799 -1286.76 91.6604 -1296.25 93.832C-1297.3 94.1422 -1298.36 94.4524 -1299.41 94.7627C-1313.82 97.5547 -1319.45 96.0036 -1331.05 86.3864C-1339.14 97.2445 -1351.09 96.624 -1363.39 93.832C-1373.59 91.6604 -1384.13 88.8683 -1394.68 91.0399C-1395.03 81.4227 -1390.46 78.6307 -1374.99 77.0795C-1368.31 65.601 -1362.69 63.7396 -1353.55 70.8749C-1354.25 71.8056 -1354.95 72.7363 -1355.66 73.667C-1358.12 78.0102 -1357.06 81.1125 -1352.85 82.9739C-1348.98 84.8353 -1343 82.9739 -1341.95 78.9409C-1341.24 75.5284 -1341.24 71.4954 -1343 68.3931C-1346.87 60.6373 -1356.71 56.9145 -1365.5 60.6373C-1373.94 64.0498 -1381.67 69.3238 -1389.41 73.9772C-1398.19 79.2511 -1406.28 85.4557 -1415.42 90.4194C-1431.24 99.1059 -1446 96.0036 -1455.85 82.9739C-1456.2 82.6637 -1456.55 82.3534 -1457.25 82.0432C-1458.66 83.5944 -1460.06 85.1455 -1461.47 86.6967C-1469.2 94.7627 -1479.05 96.9343 -1490.3 93.832C-1501.9 90.7297 -1510.69 83.5944 -1520.18 77.3898C-1527.21 72.7363 -1533.89 68.0828 -1541.27 63.7396C-1544.08 61.8782 -1547.6 60.6373 -1551.11 59.7066C-1560.96 57.535 -1571.5 63.4294 -1573.61 72.1158C-1575.02 77.3897 -1571.85 82.6637 -1566.93 83.2841C-1563.77 83.9046 -1560.96 82.9739 -1558.85 80.8023C-1556.74 78.6307 -1557.09 76.1488 -1558.85 73.9772C-1559.55 73.0465 -1560.25 71.8056 -1560.96 70.8749C-1552.52 63.7396 -1546.19 65.2908 -1539.86 76.7693C-1530.72 77.7 -1520.88 78.3204 -1518.77 89.4887C-1519.83 89.799 -1520.53 90.4194 -1521.23 90.4194C-1530.37 89.4887 -1539.16 90.4194 -1547.95 92.9013C-1550.76 93.832 -1553.92 94.1422 -1557.09 94.4524C-1567.63 95.6934 -1577.48 95.0729 -1584.16 85.1455C-1592.95 96.3138 -1604.9 96.0036 -1617.2 93.5217C-1627.75 91.3501 -1638.29 88.558 -1649.54 90.7297C-1648.49 80.8023 -1644.97 78.6307 -1629.15 76.7693C-1622.47 65.601 -1617.2 63.7396 -1608.06 70.5647C-1608.76 71.8056 -1609.82 72.7363 -1610.52 73.9772C-1612.63 77.7 -1611.22 81.1125 -1607.36 82.6637C-1603.84 84.2148 -1598.57 83.2841 -1597.16 80.1818C-1596.11 77.7 -1595.05 74.9079 -1595.76 72.4261C-1597.52 62.8089 -1608.76 56.6043 -1619.31 60.0168C-1626.34 62.4987 -1633.02 66.5317 -1639.35 70.5647C-1648.49 76.1488 -1657.28 82.6637 -1666.42 88.5581C-1673.8 93.2115 -1682.24 95.0729 -1691.73 95.0729C-1730.4 94.7627 -2051.42 94.7627 -2090.09 95.0729C-2100.98 95.0729 -2110.47 92.5911 -2119.26 87.0069C-2126.65 82.3534 -2133.68 76.7693 -2141.41 72.1158C-2148.09 67.7726 -2155.12 63.4294 -2162.85 60.3271C-2171.99 56.6043 -2181.84 60.3271 -2186.06 68.3931C-2188.16 71.8056 -2188.16 75.5284 -2186.41 79.2511C-2184.3 83.5944 -2179.38 84.8353 -2175.16 82.6637C-2170.59 80.4921 -2170.24 77.0795 -2173.4 72.7363C-2173.75 72.1158 -2174.1 71.4954 -2174.81 70.8749C-2167.42 63.1192 -2159.34 64.9805 -2154.07 76.4591C-2144.93 77.0795 -2134.73 77.7 -2132.62 88.8683C-2133.32 89.1785 -2134.03 89.799 -2134.73 89.799C-2144.57 88.5581 -2154.42 90.1092 -2163.91 92.591C-2164.96 92.9013 -2166.02 92.9013 -2167.07 93.2115C-2181.49 96.0036 -2186.41 94.7627 -2198.71 85.4558C-2205.74 95.3831 -2216.64 95.3831 -2227.89 93.832C-2231.4 93.2115 -2234.92 91.9706 -2238.43 91.6604C-2246.52 90.7297 -2254.25 89.799 -2262.69 88.8683C-2263.39 81.1125 -2258.82 78.0102 -2242.65 76.1488C-2236.68 64.6703 -2230 62.8089 -2221.56 70.2545C-2222.62 71.4954 -2224.02 73.0465 -2224.37 74.2874C-2225.43 77.0795 -2224.72 79.5614 -2221.91 81.4227C-2218.75 83.2841 -2215.58 83.5944 -2212.77 81.4227C-2209.26 78.9409 -2207.85 73.667 -2209.96 69.0135C-2213.12 60.9475 -2223.32 55.9838 -2232.11 59.0862C-2239.14 61.568 -2245.47 65.2908 -2251.79 69.0135C-2260.93 74.5977 -2269.37 81.1125 -2278.86 87.0069C-2283.08 89.4887 -2287.65 91.6604 -2292.57 92.9013C-2303.12 95.6934 -2312.61 94.4524 -2320.34 86.6967C-2322.1 84.8353 -2323.86 82.9739 -2325.97 80.8023C-2327.37 82.3534 -2328.43 83.5944 -2329.48 85.1455C-2337.92 94.1422 -2349.87 97.2445 -2361.82 91.9706C-2371.32 87.6274 -2380.1 81.733 -2389.24 76.1488C-2396.98 71.4954 -2404.36 65.601 -2412.45 61.568C-2422.99 55.9839 -2432.83 58.1555 -2439.16 66.2215C-2441.97 69.634 -2442.68 73.3568 -2441.62 77.3898C-2440.57 80.8023 -2438.11 82.9739 -2434.94 82.9739C-2432.48 82.9739 -2429.67 81.733 -2427.91 80.1818C-2425.1 77.7 -2425.45 74.9079 -2428.26 72.1158C-2428.97 71.4954 -2428.97 70.8749 -2429.32 70.2545C-2421.59 62.4987 -2414.2 64.6703 -2408.58 76.7693C-2402.95 77.0795 -2396.63 76.4591 -2391.7 80.8023C-2388.89 83.2841 -2387.49 85.766 -2387.49 90.4194C-2400.49 87.3171 -2412.09 91.6604 -2424.05 93.5217C-2434.94 95.3831 -2445.49 95.0729 -2452.17 85.4558C-2453.22 85.766 -2453.93 85.766 -2454.28 86.3864C-2461.66 95.6934 -2472.56 95.0729 -2483.1 93.5217C-2486.62 92.9013 -2490.14 91.6604 -2493.65 91.3501C-2501.74 90.4194 -2509.82 89.799 -2517.55 88.8683C-2516.5 80.1818 -2513.69 78.3204 -2497.52 76.1488C-2490.49 64.9805 -2485.57 63.1192 -2476.43 69.9442C-2476.78 70.8749 -2477.48 72.1158 -2477.83 73.0465C-2480.64 77.3898 -2479.94 80.1818 -2475.37 82.3534C-2471.5 84.2148 -2466.93 83.2841 -2464.82 79.5614C-2463.77 77.7 -2463.07 75.2181 -2463.07 73.0465C-2463.77 64.0498 -2475.02 56.6043 -2484.86 59.0862C-2489.78 60.3271 -2494.35 62.1885 -2498.57 64.6703C-2507.36 70.2545 -2516.15 76.4591 -2524.59 82.3534C-2527.4 84.2148 -2530.56 86.0762 -2533.37 87.9376C-2541.46 92.591 -2549.9 94.7627 -2559.74 94.7627C-2598.41 94.4524 -2636.73 94.4524 -2675.4 94.7627C-2686.64 94.7627 -2696.49 92.2808 -2705.28 86.6967C-2712.66 82.0432 -2719.69 76.4591 -2727.42 71.8056C-2734.1 67.7726 -2740.78 63.4294 -2748.16 60.3271C-2760.12 55.3634 -2770.31 63.1192 -2772.42 70.2545C-2773.12 73.0465 -2773.12 76.1488 -2772.07 78.9409C-2770.31 83.2841 -2765.39 84.8353 -2761.17 82.9739C-2756.6 80.8023 -2755.9 78.0102 -2758.71 73.3568C-2759.06 72.7363 -2759.41 72.1158 -2759.76 71.4954C-2752.73 63.4294 -2745.35 65.2908 -2739.02 77.0795C-2729.88 78.0102 -2719.69 78.3205 -2718.28 90.1092C-2719.69 90.4194 -2720.74 90.7297 -2721.8 90.4194C-2730.23 89.4887 -2738.67 90.7297 -2746.76 92.9013C-2750.27 93.832 -2753.79 94.4524 -2757.65 94.7627C-2771.36 96.0036 -2773.12 95.3831 -2784.37 86.3864C-2792.11 96.6241 -2803.35 96.3138 -2814.96 94.1422C-2826.2 91.9706 -2837.1 88.2478 -2848.7 91.3501C-2848 81.1125 -2842.73 77.7 -2828.31 78.0102C-2826.2 73.667 -2824.8 68.0828 -2817.77 67.1521C-2814.25 66.5317 -2812.14 67.4624 -2807.22 71.4954C-2807.92 72.4261 -2808.98 73.3568 -2809.33 74.2874C-2811.79 78.3204 -2810.03 82.3534 -2805.46 83.9046C-2801.6 85.1455 -2797.03 83.2841 -2795.62 79.2511C-2794.21 75.2181 -2794.21 70.8749 -2797.38 67.1521C-2803 60.0168 -2811.44 57.535 -2820.23 60.9475C-2826.91 63.7396 -2832.88 67.4624 -2838.86 71.1851C-2847.65 76.7693 -2856.09 82.9739 -2865.23 88.5581C-2869.09 91.0399 -2873.66 92.9013 -2877.88 94.1422C-2889.13 97.2445 -2898.97 95.0729 -2906.71 87.0069C-2908.11 85.4557 -2909.52 83.9046 -2910.92 82.0432C-2911.98 83.2841 -2912.68 84.2148 -2913.74 85.1455C-2923.93 96.0036 -2935.18 98.7957 -2949.59 92.2808C-2959.09 87.9376 -2967.52 81.4228 -2976.66 75.8386C-2984.04 71.1851 -2991.08 66.2215 -2998.81 62.1885C-3008.65 57.2248 -3018.5 59.0862 -3024.12 66.5317C-3026.23 69.3238 -3026.93 73.0465 -3027.28 76.1488C-3027.64 79.8716 -3024.47 83.5944 -3020.6 83.9046C-3018.14 83.9046 -3014.98 82.9739 -3013.22 81.4227C-3010.06 78.9409 -3011.11 75.5284 -3013.93 72.7363C-3014.28 72.1158 -3014.63 71.4954 -3014.98 70.8749C-3006.54 63.7396 -2999.51 65.601 -2994.24 77.0795C-2985.45 78.3204 -2974.9 78.0102 -2973.15 89.1785C-2973.85 89.799 -2974.2 90.4194 -2974.55 90.1092C-2985.1 88.8683 -2995.29 91.3501 -3005.14 93.2115C-3010.41 94.1422 -3016.39 94.7627 -3021.66 94.4524C-3031.5 94.1422 -3038.18 87.6274 -3038.18 78.9409C-3038.18 78.3204 -3038.18 77.3897 -3038.18 76.7693C-3039.94 64.6703 -3035.37 55.3634 -3023.07 49.469C-3023.42 48.5383 -3023.77 47.9179 -3024.12 47.9179C-3035.72 41.0928 -3039.24 31.4756 -3038.18 19.6869C-3037.13 9.44927 -3030.45 2.31397 -3018.5 2.6242C-3013.22 2.6242 -3007.95 3.86512 -3002.68 4.79581C-2997.05 5.72651 -2991.78 7.27766 -2986.15 7.89812C-2981.94 8.20835 -2977.37 7.58788 -2973.15 7.58788C-2972.44 16.5846 -2977.01 19.3766 -2993.18 20.9278C-2999.16 32.4063 -3005.49 34.2677 -3014.28 27.1324C-3013.93 26.5119 -3013.57 25.271 -3012.87 24.6506C-3010.41 22.1687 -3010.41 19.6869 -3012.17 17.205C-3013.93 14.7232 -3017.09 13.7925 -3020.25 14.413C-3024.12 15.0334 -3025.88 17.205 -3026.58 20.6176C-3028.34 29.304 -3021.31 37.6802 -3011.11 38.6109C-3004.79 39.2314 -2999.16 37.6802 -2994.24 34.5779C-2986.51 29.6143 -2979.12 24.3403 -2971.39 19.3766C-2966.12 15.9641 -2960.49 12.2413 -2954.87 9.13904C-2939.75 0.762811 -2925.34 -1.4088 -2910.57 15.9641C-2909.52 15.0334 -2908.11 14.1027 -2907.41 13.172C-2902.49 0.452578 -2891.59 -2.33949 -2877.88 3.55489C-2869.8 7.27765 -2862.06 12.2413 -2854.68 16.8948C-2847.3 21.5483 -2840.27 27.1324 -2832.53 31.4756C-2828.31 33.9575 -2822.69 35.5086 -2817.77 36.1291C-2808.98 37.0598 -2801.25 31.7859 -2799.49 24.0301C-2799.14 21.8585 -2799.14 19.6869 -2799.84 17.5153C-2801.6 12.8618 -2806.52 10.6902 -2811.09 12.8618C-2815.31 14.7232 -2816.01 18.1357 -2813.2 22.7892C-2812.85 23.4096 -2812.49 24.0301 -2812.14 24.6506C-2819.53 32.4063 -2827.61 30.2347 -2832.88 18.7562C-2838.86 18.1357 -2845.89 18.7562 -2850.46 13.7925C-2852.57 11.6209 -2855.03 9.13904 -2853.27 5.10604C-2841.67 8.20835 -2830.77 4.17535 -2819.88 2.00374C-2807.92 -0.478109 -2797.03 -0.167883 -2788.94 10.0697C-2787.54 8.8288 -2786.48 8.20834 -2785.78 7.58788C-2779.8 1.07304 -2771.72 -0.478107 -2762.93 1.07305C-2757.3 2.00374 -2751.68 3.86512 -2745.7 4.48558C-2738.32 5.41627 -2730.94 5.72651 -2723.56 6.34697C-2723.91 14.7232 -2727.42 17.205 -2743.94 19.0664C-2749.92 30.2347 -2755.9 32.0961 -2764.69 25.5813C-2763.98 24.3403 -2763.28 23.0994 -2762.58 21.8585C-2760.82 18.446 -2761.52 15.6539 -2765.04 13.4823C-2768.2 11.6209 -2772.42 11.9311 -2774.88 14.413C-2778.4 17.8255 -2778.75 21.8585 -2776.99 26.2017C-2772.77 35.1984 -2761.52 39.5416 -2750.98 34.5779C-2742.89 30.8552 -2735.51 25.5813 -2728.13 20.9278C-2721.09 16.5846 -2714.77 11.9311 -2707.74 7.58788C-2699.3 2.62419 -2690.16 0.142356 -2679.97 0.142356C-2642 0.452586 -2604.03 0.452586 -2566.07 0.142356C-2555.52 0.142356 -2546.03 2.31396 -2537.59 7.58788C-2528.1 13.4823 -2519.31 19.9971 -2510.17 25.8915C-2504.9 29.304 -2499.63 32.4063 -2493.65 34.8882C-2483.81 38.6109 -2473.26 34.5779 -2469.04 26.2017C-2467.29 22.7892 -2467.29 19.3766 -2469.04 16.2743C-2471.5 12.2413 -2476.07 10.6902 -2480.29 12.8618C-2484.16 15.0334 -2484.86 18.1357 -2482.05 22.1687C-2481.7 23.0994 -2481 23.7199 -2480.64 24.6506C-2488.73 32.0961 -2495.76 30.2347 -2501.38 18.7562ZM-2497.52 46.3667C-2510.88 42.0235 -2521.77 33.337 -2533.02 25.271C-2536.19 22.7892 -2539.7 20.9278 -2543.22 18.7562C-2550.25 14.413 -2557.63 12.5516 -2566.07 12.5516C-2602.28 12.8618 -2638.48 12.8618 -2674.69 12.5516C-2687.35 12.5516 -2697.54 15.6539 -2707.38 22.1687C-2720.39 31.1654 -2731.99 42.0235 -2748.51 46.6769C-2742.54 49.469 -2737.27 51.6406 -2732.34 54.4327C-2727.07 57.535 -2722.5 61.2578 -2717.58 64.3601C-2712.31 67.7726 -2707.39 71.4954 -2702.11 74.9079C-2695.43 79.2511 -2687.7 81.1125 -2679.26 81.1125C-2645.16 80.8023 -2611.06 81.1125 -2577.32 81.1125C-2549.9 81.1125 -2548.14 80.4921 -2527.05 64.9805C-2524.59 63.1191 -2522.48 61.2578 -2519.66 59.7066C-2512.98 55.3634 -2505.6 51.0202 -2497.52 46.3667ZM-446.426 46.9872C-435.528 50.7099 -426.739 56.9145 -417.951 63.1192C-412.678 67.1521 -407.053 70.8749 -401.428 74.5977C-394.749 78.9409 -387.367 81.1125 -378.579 81.1125C-339.909 80.8023 -300.889 80.8023 -262.22 81.1125C-254.838 81.1125 -248.51 79.5614 -242.534 75.8386C-239.019 73.667 -235.151 71.1851 -231.636 69.0135C-220.035 61.2578 -209.841 51.6406 -193.319 46.9872C-208.786 42.6439 -218.981 33.9575 -229.527 26.512C-233.746 23.7199 -237.964 20.9278 -242.534 18.1357C-248.862 14.413 -255.892 12.5516 -263.978 12.5516C-301.592 12.8618 -339.206 12.8618 -376.821 12.5516C-386.312 12.5516 -394.398 15.0334 -401.78 19.6869C-405.296 21.8585 -408.811 24.3403 -412.326 26.8222C-423.224 34.2677 -433.067 42.6439 -446.426 46.9872ZM-1041.73 46.3667C-1034 50.7099 -1026.27 54.7429 -1019.24 59.0862C-1011.15 64.3601 -1003.42 69.9442 -995.332 75.2181C-989.004 79.2511 -981.974 81.1125 -973.888 80.8023C-937.328 80.4921 -890.768 80.1818 -854.208 80.8023C-840.499 81.1125 -829.601 78.0102 -819.406 70.2545C-816.594 68.0828 -813.43 65.9112 -810.267 63.7396C-801.127 56.9145 -791.986 50.3997 -778.979 46.6769C-795.853 41.403 -807.103 31.1654 -819.758 22.4789C-821.867 20.9278 -824.328 19.6869 -826.789 18.1357C-833.819 13.7925 -841.553 11.6209 -850.342 11.6209C-886.198 11.9311 -931.704 11.9311 -967.56 11.6209C-980.919 11.3106 -992.168 15.0334 -1002.36 22.1687C-1015.02 31.7859 -1025.92 42.0235 -1041.73 46.3667ZM-1630.56 46.9872C-1645.32 41.7132 -1655.87 31.7859 -1667.82 24.0301C-1670.63 22.1687 -1673.1 20.3073 -1675.91 18.7562C-1682.94 14.413 -1690.32 12.5516 -1698.76 12.5516C-1736.02 12.8618 -2054.93 12.8618 -2092.19 12.5516C-2102.74 12.5516 -2111.53 15.0334 -2119.61 20.6176C-2125.24 24.3403 -2130.51 28.3733 -2136.14 32.0961C-2144.57 37.37 -2153.36 42.6439 -2162.5 47.9179C-2150.9 51.0202 -2141.76 57.8452 -2132.62 64.6703C-2127.7 68.0828 -2122.78 71.4954 -2117.86 74.5977C-2110.83 79.2511 -2103.09 81.1125 -2094.3 81.1125C-2055.99 80.8023 -1735.67 80.8023 -1697.7 81.1125C-1689.62 81.1125 -1682.59 79.5614 -1676.26 75.5284C-1672.74 73.0465 -1668.88 70.8749 -1665.36 68.3931C-1654.46 60.9475 -1644.62 51.6406 -1630.56 46.9872ZM-1418.58 40.1621C-1413.31 40.4723 -1408.39 40.4723 -1403.82 41.0928C-1398.9 41.7132 -1394.68 45.1258 -1395.38 47.2974C-1396.44 51.0202 -1399.95 51.9508 -1403.82 52.5713C-1408.74 53.502 -1413.66 53.8122 -1418.58 54.4327C-1420.69 68.0828 -1429.48 73.667 -1438.97 67.4624C-1437.57 65.9112 -1436.16 64.3601 -1435.1 62.8089C-1433.7 59.7066 -1434.4 56.9145 -1437.21 54.7429C-1440.03 52.5713 -1443.19 52.2611 -1446.71 54.1225C-1452.68 57.535 -1455.49 65.9112 -1453.03 71.8056C-1449.87 79.2511 -1443.54 82.3534 -1435.1 80.8023C-1431.94 80.1818 -1428.78 78.9409 -1425.96 77.3898C-1420.34 74.2875 -1414.72 70.5647 -1409.44 67.1521C-1401.71 62.1885 -1394.33 56.9145 -1386.59 51.9508C-1383.43 50.0895 -1379.56 48.8485 -1375.7 47.2974C-1382.37 43.8849 -1388.35 41.403 -1393.62 37.9905C-1399.25 34.5779 -1404.17 30.5449 -1409.44 26.8222C-1416.82 21.8585 -1423.86 16.2743 -1433 13.7925C-1441.78 11.6209 -1448.11 13.4823 -1451.63 19.3766C-1455.49 25.8915 -1453.74 34.8882 -1447.76 38.9212C-1444.6 41.0928 -1439.67 41.403 -1436.86 39.2314C-1434.05 37.0598 -1433.35 33.0268 -1435.81 29.6143C-1436.86 28.3733 -1437.92 27.1324 -1439.32 25.5813C-1426.67 21.8585 -1420.34 26.2017 -1418.58 40.1621ZM-72.3899 54.1225C-81.1782 52.8815 -91.0215 55.0532 -96.2944 46.6769C-93.4822 42.6439 -89.6155 41.0928 -84.6938 40.7826C-80.4753 40.4723 -75.9053 40.4723 -71.6868 40.1621C-70.6321 26.5119 -64.3044 21.8585 -52.0007 25.8915C-53.0554 27.1324 -54.1101 28.3733 -54.8132 29.304C-57.2739 33.337 -56.2192 37.9905 -52.7039 39.8519C-48.8369 42.0235 -44.2668 40.7826 -41.103 37.0598C-36.1814 31.7859 -35.8301 23.7199 -40.4001 18.446C-44.6187 12.8618 -51.6492 11.0004 -59.7346 14.413C-67.1169 17.5153 -74.1477 21.8585 -80.8269 26.2017C-90.6699 32.7166 -99.4583 40.4723 -111.059 44.8155C-112.817 45.436 -114.223 46.0565 -114.926 46.6769C-107.192 51.0202 -99.8098 55.0532 -92.4275 59.7066C-86.803 63.1191 -82.2329 67.4624 -76.6084 70.8749C-70.9839 74.2875 -65.0073 78.0102 -58.6797 80.1818C-49.1882 83.5944 -40.3999 79.8716 -37.9392 71.8056C-36.1816 66.2215 -37.5876 60.9475 -41.8062 56.2941C-44.97 52.8815 -49.1885 52.2611 -53.0554 54.1225C-56.5708 55.9838 -57.6252 60.0168 -55.5161 64.0498C-54.813 65.601 -53.407 66.8419 -52.3523 68.0828C-63.25 72.7363 -70.2808 67.7726 -72.3899 54.1225ZM-1232.27 25.8915C-1233.32 27.1324 -1234.38 28.0631 -1235.08 29.304C-1237.89 33.0268 -1237.54 37.0598 -1234.38 39.2314C-1231.21 41.403 -1225.59 41.403 -1223.13 38.3007C-1220.67 35.5086 -1218.56 31.7859 -1217.85 28.3733C-1216.1 18.446 -1226.64 10.38 -1237.54 13.172C-1241.41 14.1027 -1244.92 15.6539 -1248.09 17.5153C-1255.47 22.1687 -1262.15 27.1324 -1269.53 31.7859C-1278.32 37.37 -1287.11 42.3337 -1295.9 47.6076C-1286.05 50.0895 -1277.97 55.6736 -1269.88 61.568C-1262.85 66.5317 -1255.82 71.4954 -1248.44 76.1488C-1244.92 78.3204 -1241.06 79.8716 -1237.19 80.8023C-1228.75 82.6637 -1222.78 79.8716 -1219.26 73.0465C-1216.1 67.1522 -1218.56 58.4657 -1224.18 54.7429C-1227.7 52.5713 -1231.56 52.2611 -1234.38 54.4327C-1237.54 56.6043 -1238.24 60.3271 -1236.13 63.7396C-1235.08 65.2908 -1233.67 66.8419 -1232.62 68.3931C-1244.22 72.7363 -1250.9 68.0828 -1253.71 54.1225C-1256.17 54.1225 -1258.63 54.1225 -1261.09 53.8122C-1265.31 53.1918 -1269.53 52.5713 -1273.05 51.0202C-1277.97 48.8485 -1277.97 45.7462 -1273.05 43.2644C-1269.88 41.7132 -1266.37 41.0928 -1262.85 40.7826C-1259.69 40.4723 -1256.52 40.4723 -1253.36 40.4723C-1251.25 26.2017 -1244.57 21.5483 -1232.27 25.8915ZM-2285.54 40.4723C-2283.08 40.4723 -2280.62 40.4723 -2278.16 40.4723C-2275.35 40.7826 -2272.53 40.7826 -2269.72 41.403C-2266.56 42.3337 -2262.69 43.2644 -2262.69 46.6769C-2262.69 50.3997 -2266.56 51.3304 -2269.72 52.2611C-2272.88 53.1918 -2276.4 53.1918 -2279.56 53.8122C-2281.67 54.1225 -2283.78 54.1225 -2285.89 54.4327C-2287.65 68.0828 -2295.38 73.0465 -2306.63 68.0828C-2305.93 67.1521 -2305.23 66.5317 -2304.87 65.9112C-2301.36 61.8782 -2301.36 57.535 -2304.87 54.7429C-2308.74 51.9509 -2314.01 52.8815 -2317.88 57.535C-2322.45 63.1192 -2322.45 70.8749 -2318.23 76.1488C-2314.37 81.1125 -2306.98 82.6637 -2299.25 80.1818C-2296.44 79.2511 -2293.63 78.0102 -2291.16 76.4591C-2286.95 73.9772 -2282.73 71.4954 -2278.86 68.7033C-2267.61 60.9475 -2257.07 51.6406 -2240.54 47.2974C-2257.07 42.9542 -2267.61 33.337 -2279.21 25.271C-2285.54 20.9278 -2292.57 17.205 -2299.95 14.1027C-2308.04 11.0004 -2315.42 13.4823 -2319.29 19.9971C-2323.15 25.8915 -2321.4 34.5779 -2315.42 38.9212C-2312.26 41.403 -2307.69 41.7132 -2304.52 39.5416C-2301.36 37.37 -2301.01 33.337 -2303.12 30.2347C-2304.17 28.6836 -2305.58 27.4426 -2306.98 25.5813C-2292.92 22.4789 -2288.35 25.8915 -2285.54 40.4723ZM-4.89478 67.7726C-3.48853 66.5317 -2.08252 65.2908 -1.02783 64.0498C1.0813 60.9475 0.0268555 56.6043 -3.13696 54.4327C-5.94922 52.2611 -9.81616 52.5713 -13.3315 54.7429C-19.3076 58.4657 -21.417 67.1521 -17.9016 73.667C-14.7378 79.8716 -8.41016 82.3534 -0.324707 80.8023C3.19067 80.1818 6.70581 78.6307 9.51807 77.0795C14.4397 74.2875 19.3613 71.1851 23.9314 68.0828C35.1807 60.3271 45.0234 51.3304 59.085 47.2974C45.0234 42.9542 34.8289 34.5779 24.2827 26.512C20.4158 23.7199 16.1975 20.9278 11.979 18.446C8.81519 16.5846 4.94824 15.0334 1.43286 13.7925C-7.00415 11.3106 -13.3318 13.172 -17.5503 19.3766C-21.7688 25.5813 -20.0107 34.5779 -14.0347 38.9212C-10.8708 41.403 -6.30078 41.403 -3.13696 39.2314C-0.324707 37.0598 0.378174 33.337 -1.37939 30.2347C-2.43408 28.6836 -3.84033 27.1324 -5.5979 24.9608C-0.324951 23.7199 3.89355 23.4096 8.11206 25.271C14.7913 28.3733 15.1428 34.2677 15.4944 40.4723C19.3613 40.4723 22.8767 40.1621 26.0405 40.4723C29.5559 41.0928 33.0715 41.7132 36.2354 43.2644C40.1023 45.1258 40.1023 48.2281 36.2354 50.0895C33.0715 51.6406 29.5559 52.5713 26.0405 53.1918C22.5251 53.8122 19.0098 53.8122 15.4944 54.1225C14.0881 68.0828 5.65137 73.3568 -4.89478 67.7726ZM-3002.32 46.6769C-2994.59 51.0202 -2987.21 54.7429 -2980.53 58.7759C-2974.9 62.1885 -2970.33 66.5317 -2964.71 69.9442C-2958.73 73.667 -2952.76 77.3897 -2946.08 79.8716C-2937.99 82.9739 -2930.61 80.8023 -2926.74 75.5284C-2922.53 69.634 -2923.58 60.3271 -2929.2 55.6736C-2932.37 52.8815 -2936.59 52.2611 -2939.75 54.4327C-2943.27 56.6043 -2943.97 60.9475 -2941.86 64.3601C-2940.81 65.601 -2939.75 66.8419 -2938.34 68.3931C-2942.21 71.1852 -2945.73 70.5647 -2949.95 69.3238C-2958.03 66.5317 -2958.38 60.3271 -2959.09 54.1225C-2963.3 53.8122 -2966.82 54.1225 -2970.69 53.502C-2978.07 52.5713 -2982.64 49.469 -2982.29 46.6769C-2981.94 43.8849 -2976.31 41.0928 -2969.63 40.7826C-2966.12 40.4723 -2962.6 40.7826 -2959.09 40.7826C-2956.98 26.2017 -2948.89 20.9278 -2938.34 26.512C-2939.75 28.0631 -2941.51 29.6143 -2942.21 31.1654C-2943.62 33.9575 -2943.27 37.0598 -2940.1 39.2314C-2937.29 41.403 -2933.77 41.403 -2930.61 39.8519C-2924.63 36.7496 -2921.47 27.7529 -2924.28 21.238C-2927.45 14.413 -2934.83 11.0004 -2942.91 13.4823C-2949.24 15.6539 -2955.57 18.7562 -2961.19 22.1687C-2975.26 30.8552 -2986.51 42.0235 -3002.32 46.6769ZM-2826.2 46.9872C-2841.32 42.3337 -2851.52 34.2677 -2862.41 26.512C-2866.63 23.4096 -2870.85 20.6176 -2875.42 18.1357C-2879.29 15.9641 -2883.86 14.413 -2888.43 12.8618C-2892.29 11.3107 -2896.16 12.5516 -2899.68 14.413C-2908.82 19.6869 -2909.17 33.0268 -2900.73 38.9212C-2897.92 40.7826 -2893.35 41.0928 -2890.54 39.2314C-2887.72 37.37 -2886.67 33.337 -2888.43 30.545C-2889.48 28.9938 -2890.89 27.4426 -2892.29 25.8915C-2886.32 23.4096 -2883.15 23.4096 -2879.29 25.271C-2872.61 28.3733 -2871.9 33.9575 -2871.9 40.1621C-2863.12 41.403 -2852.92 38.3007 -2847.3 47.2974C-2853.62 55.3634 -2863.47 52.8815 -2871.9 54.7429C-2871.55 61.568 -2873.31 66.8419 -2880.69 69.634C-2884.56 70.8749 -2888.08 71.1851 -2891.24 68.0828C-2890.18 66.5317 -2888.78 65.601 -2888.08 64.3601C-2885.97 60.6373 -2887.02 56.2941 -2890.54 54.4327C-2894.4 52.2611 -2898.62 53.1918 -2901.79 56.6043C-2903.19 58.4657 -2904.6 60.3271 -2905.3 62.4987C-2907.06 68.0828 -2906.35 73.3568 -2901.79 77.7C-2897.22 82.0432 -2891.24 82.3534 -2885.26 80.4921C-2880.69 79.2511 -2876.47 77.0795 -2872.61 74.5977C-2866.63 70.8749 -2861.01 66.8419 -2855.38 62.8089C-2847.3 56.6043 -2838.51 50.7099 -2826.2 46.9872ZM-702.696 46.9872C-689.689 51.0202 -680.198 57.535 -671.058 64.0498C-662.972 69.9442 -653.832 75.2181 -644.692 79.5614C-636.958 82.9739 -629.225 80.4921 -625.358 75.2181C-621.139 69.3238 -622.194 60.0168 -627.819 55.3634C-630.982 52.5713 -635.201 52.2611 -638.365 54.1225C-641.88 56.2941 -642.583 60.6373 -640.474 64.0498C-639.419 65.2908 -638.365 66.5317 -636.958 68.0828C-643.286 70.5647 -644.341 70.5647 -648.559 69.0135C-656.645 66.5317 -656.996 60.0168 -657.699 53.8122C-661.918 53.502 -665.784 53.8122 -669.3 53.1918C-676.682 52.2611 -681.252 49.1588 -680.9 46.3667C-680.549 43.5746 -674.925 40.7826 -668.245 40.4723C-664.73 40.4723 -661.215 40.4723 -657.699 40.4723C-655.59 25.8915 -647.856 20.6176 -636.958 26.2017C-638.013 27.4426 -639.419 28.3733 -640.122 29.6143C-642.583 33.0268 -641.88 36.7496 -639.068 39.2314C-635.904 41.7132 -630.631 41.403 -627.819 38.3007C-625.709 36.1291 -623.952 33.337 -622.897 30.545C-620.788 24.9608 -622.897 20.3073 -627.467 16.2743C-631.686 12.2413 -637.31 11.0004 -642.935 13.4823C-648.911 15.9641 -654.887 18.7562 -660.511 22.1687C-673.518 30.8552 -684.768 42.0235 -702.696 46.9872ZM-525.873 47.6076C-532.552 44.1951 -538.88 41.403 -544.504 37.9905C-550.129 34.5779 -555.402 30.2347 -561.027 26.512C-565.245 23.7199 -569.463 20.6176 -574.033 18.1357C-577.9 16.2743 -582.119 14.7232 -586.337 13.172C-590.556 11.6209 -594.774 12.8618 -598.289 15.0334C-606.726 20.3073 -607.078 33.337 -598.641 39.2314C-595.829 41.403 -591.259 41.403 -588.446 39.5416C-585.282 37.37 -584.931 34.5779 -585.986 31.4756C-586.689 29.6143 -588.446 27.7529 -589.501 25.8915C-577.197 21.8585 -571.924 25.8915 -569.112 40.4723C-561.026 41.403 -550.832 38.6109 -545.207 47.2974C-551.183 55.3634 -561.378 53.1918 -569.464 54.7429C-571.221 68.7033 -578.252 73.3568 -590.204 68.3931C-589.149 67.1522 -588.095 66.2215 -587.04 64.9805C-584.58 61.568 -584.931 56.9145 -588.095 54.7429C-591.61 52.2611 -596.883 52.5713 -600.047 56.2941C-602.156 58.7759 -603.562 61.568 -604.266 64.3601C-606.726 76.1488 -596.18 84.2148 -583.173 80.4921C-578.955 79.2511 -575.088 77.0795 -571.221 74.9079C-565.245 71.1852 -559.62 67.1521 -553.996 63.1192C-545.91 56.6043 -537.122 50.7099 -525.873 47.6076ZM-2353.39 25.5813C-2355.14 28.0631 -2356.55 29.9245 -2357.25 31.7859C-2358.31 34.8882 -2357.96 38.3007 -2354.44 39.5416C-2351.98 40.4723 -2348.11 40.7825 -2345.65 39.5416C-2339.33 37.0598 -2336.86 27.4426 -2339.68 20.9278C-2342.84 14.1027 -2350.22 10.6902 -2357.96 13.4823C-2363.93 15.3437 -2369.56 18.1357 -2374.83 21.5483C-2388.89 30.2347 -2400.49 41.7132 -2418.42 46.9872C-2405.77 50.3997 -2396.98 56.6043 -2388.54 62.8089C-2383.27 66.8419 -2377.64 70.5647 -2372.02 74.2874C-2368.15 76.7693 -2363.93 78.9409 -2359.36 80.1818C-2350.93 82.6637 -2343.54 80.1818 -2340.03 73.667C-2336.86 68.0828 -2338.62 60.0168 -2343.19 55.6736C-2346.71 52.5713 -2350.93 51.9509 -2354.44 54.4327C-2357.25 56.2941 -2358.31 60.6373 -2356.2 64.0498C-2355.14 65.601 -2353.74 66.8419 -2352.68 68.3931C-2357.25 71.1852 -2361.12 70.8749 -2365.34 69.0135C-2372.02 65.9112 -2373.07 60.3271 -2373.07 54.4327C-2381.86 52.8815 -2392.06 55.3634 -2397.68 46.6769C-2394.87 42.9542 -2391 41.403 -2386.43 40.7826C-2382.21 40.1621 -2377.64 40.4723 -2373.42 40.1621C-2372.37 26.2017 -2366.75 22.1687 -2353.39 25.5813ZM-1184.46 25.5813C-1172.15 21.8585 -1165.48 26.8222 -1164.77 40.1621C-1156.69 41.403 -1146.49 38.3007 -1140.87 46.9872C-1146.84 55.3634 -1157.04 52.5713 -1165.12 54.4327C-1165.48 67.1521 -1174.26 73.3568 -1185.16 68.0828C-1184.11 66.8419 -1183.05 65.9112 -1182.35 64.6703C-1180.24 60.9475 -1180.94 56.6043 -1184.11 54.7429C-1187.97 52.5713 -1191.49 52.8815 -1195.36 56.6043C-1200.98 61.8782 -1201.68 69.634 -1197.47 75.8386C-1193.6 81.4228 -1186.57 83.5944 -1178.13 80.1818C-1172.16 77.7 -1166.18 74.5977 -1160.91 71.1851C-1148.25 63.1191 -1137.35 52.2611 -1119.78 47.6076C-1135.6 42.9542 -1145.79 33.9575 -1157.39 26.2017C-1164.42 21.5483 -1171.8 17.5153 -1179.54 14.413C-1187.62 11.3107 -1195 14.1027 -1198.52 20.9278C-1202.04 27.1324 -1199.93 36.1291 -1193.95 39.8519C-1190.79 41.7132 -1187.27 42.3337 -1184.46 40.1621C-1182.7 38.9212 -1181.29 36.1291 -1181.29 33.9575C-1181.29 31.1654 -1183.4 28.6836 -1184.46 25.5813ZM-1550.06 46.9872C-1539.16 50.7099 -1530.37 56.9145 -1521.58 63.1192C-1516.31 67.1521 -1510.69 70.8749 -1505.06 74.5977C-1501.19 77.0795 -1496.98 79.2511 -1492.41 80.4921C-1480.45 83.9046 -1469.56 75.2181 -1472.02 64.0498C-1472.72 61.2578 -1474.48 58.4657 -1476.59 56.2941C-1479.4 52.8815 -1483.62 52.2611 -1486.78 53.8122C-1490.3 55.6736 -1491.7 59.7066 -1489.94 63.7396C-1489.24 65.2908 -1487.84 66.8419 -1486.78 68.3931C-1491 71.8056 -1494.51 70.5647 -1498.38 69.3238C-1505.76 66.5317 -1506.82 60.6373 -1507.52 54.7429C-1516.31 53.8122 -1525.8 55.3634 -1531.07 47.2974C-1524.75 38.9212 -1515.26 42.0235 -1507.17 40.7826C-1506.47 27.1324 -1498.38 21.5483 -1487.48 26.512C-1488.54 28.3733 -1490.3 30.2347 -1491 32.4063C-1492.05 35.8189 -1490.3 39.5416 -1487.48 40.7826C-1484.32 42.0235 -1480.8 41.7132 -1477.99 39.5416C-1472.02 34.5779 -1470.26 25.8915 -1474.83 19.6869C-1479.05 13.7925 -1486.43 11.3106 -1494.51 14.7232C-1501.9 18.1357 -1508.93 22.1687 -1515.61 26.512C-1526.15 33.337 -1536 42.3337 -1550.06 46.9872ZM-169.414 46.6769C-164.844 51.0202 -159.923 55.9838 -155.353 60.3271C-150.431 55.6736 -145.51 51.0202 -141.291 46.6769C-145.861 42.3337 -150.782 37.6802 -155.353 33.337C-159.923 37.9905 -164.844 42.3337 -169.414 46.6769ZM-1576.42 47.2974C-1581.34 43.2644 -1586.62 38.9212 -1591.54 34.8882C-1595.05 38.3007 -1599.98 42.6439 -1604.19 46.6769C-1599.27 51.3304 -1594.35 55.9838 -1590.13 60.3271C-1584.86 55.9838 -1580.29 51.3304 -1576.42 47.2974ZM-2457.09 33.6473C-2462.01 38.3007 -2466.93 42.9542 -2471.15 46.9872C-2466.58 51.6406 -2461.66 55.9839 -2457.09 60.6373C-2452.52 55.9839 -2447.6 51.3304 -2443.03 46.9872C-2447.25 42.6439 -2452.17 38.3007 -2457.09 33.6473ZM-2788.59 33.337C-2790.35 35.1984 -2792.46 37.6803 -2794.57 39.8519C-2797.38 42.3337 -2800.19 44.5053 -2802.65 46.3667C-2797.73 51.3304 -2792.81 55.9838 -2788.24 60.3271C-2783.67 55.6736 -2778.75 51.0202 -2774.18 46.6769C-2778.4 42.9542 -2783.32 38.6109 -2788.59 33.337ZM-2188.87 46.9872C-2193.44 42.6439 -2198.36 37.6802 -2202.93 33.337C-2207.85 37.9905 -2212.77 42.6439 -2217.34 46.9872C-2212.42 51.3304 -2207.85 55.9838 -2203.28 60.3271C-2198.36 55.9838 -2193.44 51.3304 -2188.87 46.9872ZM-486.5 61.2578C-483.688 58.1555 -481.93 55.3634 -479.47 52.8815C-477.009 50.3997 -474.197 48.5383 -472.088 46.9872C-477.361 42.0235 -481.93 37.6803 -486.5 33.6473C-491.422 38.3007 -496.344 42.9542 -500.914 47.2974C-498.453 49.1588 -495.641 51.0202 -493.18 53.1918C-491.071 55.6736 -489.313 58.4657 -486.5 61.2578ZM-1335.97 33.337C-1340.54 37.6802 -1345.81 42.6439 -1350.03 46.6769C-1345.11 51.3304 -1340.19 55.9838 -1335.97 60.3271C-1331.4 55.9838 -1326.48 51.3304 -1321.91 46.9872C-1326.13 42.6439 -1331.05 37.9905 -1335.97 33.337ZM-740.662 60.6373C-736.092 55.9839 -731.17 51.3304 -726.6 47.2974C-731.522 42.6439 -736.092 37.9905 -740.662 33.6473C-745.583 38.3007 -750.505 42.9542 -754.723 47.6076C-750.153 51.6406 -745.232 55.9839 -740.662 60.6373ZM-1067.75 46.9872C-1072.32 42.6439 -1077.24 37.9905 -1081.81 33.9575C-1086.73 38.6109 -1091.65 42.9542 -1096.22 47.6076C-1093.76 49.469 -1090.6 51.3304 -1088.49 53.8122C-1086.03 56.2941 -1083.92 59.0861 -1082.16 61.2578C-1076.89 55.9838 -1072.32 51.3304 -1067.75 46.9872ZM-35.8298 46.6769C-33.3691 49.469 -30.9084 52.2611 -28.4478 54.7429C-25.6355 51.9509 -23.5261 49.1588 -20.7139 46.3667C-23.5261 43.5746 -25.6355 41.403 -28.4478 38.9212C-30.9084 41.7133 -33.3691 44.1951 -35.8298 46.6769ZM-613.757 38.9212C-616.218 42.0235 -618.327 44.5053 -620.788 46.9872C-618.327 49.7792 -616.218 52.2611 -613.757 55.0532C-610.945 51.9508 -608.835 49.469 -606.375 46.6769C-608.835 44.1951 -610.945 41.7133 -613.757 38.9212ZM-1462.88 55.0532C-1460.06 52.2611 -1457.95 49.7792 -1455.49 47.2974C-1457.95 44.5053 -1460.06 42.0235 -1462.52 38.9212C-1465.34 42.0235 -1467.45 44.1951 -1469.91 46.9872C-1467.8 49.469 -1465.69 51.9508 -1462.88 55.0532ZM-2329.83 55.3634C-2327.37 52.5713 -2325.26 50.0895 -2322.8 47.2974C-2324.91 44.8155 -2327.02 42.0235 -2329.83 39.2314C-2332.65 42.3337 -2335.11 44.8155 -2337.57 47.2974C-2334.76 50.0895 -2332.29 52.5713 -2329.83 55.3634ZM-1208.71 55.0532C-1205.9 51.9508 -1203.79 49.469 -1201.68 46.6769C-1204.14 43.8849 -1206.61 41.7133 -1209.07 38.9212C-1211.53 42.0235 -1213.64 44.5053 -1216.1 47.2974C-1213.64 49.7792 -1211.53 51.9508 -1208.71 55.0532ZM-2915.14 55.3634C-2912.33 52.2611 -2910.22 49.469 -2907.76 46.6769C-2910.57 43.8849 -2912.68 41.7132 -2915.49 39.2314C-2917.96 42.3337 -2920.06 44.8155 -2922.17 47.2974C-2919.71 50.0895 -2917.6 52.2611 -2915.14 55.3634Z" fill="white"/>
<path d="M638.616 18.7562C623.148 17.5153 619.281 15.0334 617.875 5.7265C618.227 5.7265 618.227 5.41627 618.578 5.41627C629.476 7.27765 639.67 4.48557 649.865 2.31396C667.09 -1.09857 669.903 -0.478105 683.261 9.44927C684.316 8.82881 685.37 7.89812 686.073 7.27766C692.049 1.07305 699.783 -0.478107 708.22 1.07305C713.845 2.00374 719.118 3.55489 724.742 4.17535C732.476 5.10604 739.859 5.72651 747.944 6.34697C748.295 14.413 743.022 17.8255 727.906 18.446C725.797 22.1687 725.094 27.7529 718.766 28.6836C714.548 29.304 710.329 29.304 706.814 25.271C707.517 24.0301 708.22 23.0994 708.923 21.8585C711.033 18.1357 709.978 14.7232 706.462 12.8618C702.947 11.3107 697.674 11.9311 696.268 15.3436C694.862 17.8255 694.159 21.238 694.51 23.7199C696.62 33.9575 708.22 39.5416 719.821 34.8882C727.555 31.7859 734.234 27.1324 740.913 22.7892C748.647 17.8255 756.029 12.2413 763.763 7.58788C767.981 5.10604 773.255 3.24466 778.176 1.69351C789.777 -1.71903 798.917 2.00374 806.651 9.7595C807.705 11.0004 808.76 11.9311 810.166 13.7925C811.572 12.5516 812.275 11.6209 813.33 10.38C822.47 0.142355 834.07 -2.64972 847.78 3.24466C856.569 6.96743 864.303 12.5516 872.388 17.5153C879.77 22.1687 886.801 27.1324 893.832 31.7859C898.753 34.8882 904.378 36.4393 910.354 36.1291C919.846 35.5086 926.876 28.3733 926.173 19.9971C925.822 15.6539 923.712 12.8618 919.846 12.2413C916.682 11.6209 913.518 12.2413 911.76 14.7232C909.299 17.8255 910.354 20.6176 913.166 23.4096C913.518 23.7199 913.518 24.3403 913.869 24.6506C905.784 32.0961 898.402 29.9245 893.129 18.446C886.801 18.1357 880.122 18.446 875.552 13.4823C873.794 11.3107 872.74 8.51858 870.63 4.17535C884.692 7.89812 895.589 3.24466 907.19 1.38327C922.306 -1.09857 925.822 -0.167876 937.071 8.82881C937.774 8.51858 938.477 8.20835 939.18 7.89812C946.211 0.142357 955.351 -1.09857 965.897 0.762809C971.873 2.00373 977.849 3.55489 983.825 4.48558C988.747 5.10604 993.668 4.79581 998.59 4.79581C999.996 4.79581 1001.4 4.79581 1002.81 4.79581C1000.7 15.0334 997.535 17.205 981.716 18.1357C979.607 22.1687 978.552 27.7529 971.521 28.3733C967.655 28.6836 963.436 28.9938 961.327 24.6506C961.678 24.0301 962.03 23.0994 962.733 22.1687C964.842 19.6869 965.545 17.205 963.085 14.7232C960.975 12.2413 958.163 11.6209 954.999 11.9311C951.132 12.5516 949.375 15.0334 948.672 18.1357C946.562 25.8915 954.648 35.1984 964.139 36.1291C969.764 36.7496 975.037 35.5086 979.255 32.7166C986.989 28.0631 994.02 23.0994 1001.75 18.1357C1008.08 14.1027 1014.41 9.7595 1020.74 6.03673C1027.77 2.00373 1035.5 0.142356 1043.94 0.142356C1082.61 0.142356 1403.63 0.452586 1442.3 0.142356C1452.84 0.142356 1462.33 2.31397 1470.77 7.89812C1480.26 13.7925 1489.05 20.3073 1498.19 26.2017C1503.46 29.6143 1508.74 32.7166 1514.71 34.8882C1525.26 38.9212 1536.16 33.9575 1539.67 24.3403C1541.08 20.9278 1540.38 17.8255 1538.27 15.0334C1535.81 11.6209 1530.88 10.6902 1527.37 12.8618C1523.85 15.0334 1523.15 17.8255 1525.61 21.8585C1525.96 22.7892 1527.02 23.4096 1527.37 24.0301C1519.99 32.0961 1512.25 29.9245 1506.63 18.446C1500.65 17.8255 1493.62 18.4459 1489.05 13.172C1487.29 11.0004 1486.24 8.20835 1485.54 5.10604C1497.14 7.89812 1507.68 3.86512 1518.23 2.00374C1536.16 -1.4088 1537.56 -0.788342 1550.92 9.13904C1551.27 9.13904 1551.62 9.13904 1551.62 9.13904C1559.71 0.142349 1570.26 -1.09857 1581.86 2.00374C1583.97 2.6242 1586.08 2.93443 1588.54 3.55489C1597.32 5.41627 1606.46 7.89812 1615.6 4.79581C1614.9 15.0334 1610.68 17.8255 1594.86 19.0664C1592.4 22.7892 1591.7 28.6836 1584.67 29.304C1580.8 29.6143 1576.58 29.6143 1574.12 25.5813C1574.83 24.6506 1575.53 23.7199 1576.23 22.7892C1578.69 19.0664 1577.64 15.6539 1574.12 13.7925C1570.61 11.9311 1566.04 12.8618 1563.58 15.6539C1561.12 18.7562 1560.41 21.8585 1561.82 25.5813C1565.69 35.5086 1576.94 40.4723 1587.48 35.5086C1595.92 31.7859 1603.3 26.5119 1611.39 21.5483C1619.47 16.5846 1627.21 11.3107 1635.29 6.34697C1638.45 4.48558 1642.32 3.24465 1646.19 2.31396C1655.68 -0.478114 1663.77 1.6935 1670.8 7.58788C1673.26 9.7595 1675.37 11.9311 1678.18 14.7232C1678.88 13.7925 1679.23 13.172 1679.58 12.5516C1689.43 0.142356 1703.49 -2.64972 1719.31 6.03673C1729.5 11.6209 1738.64 18.7562 1748.49 24.9608C1754.81 28.9938 1761.49 33.0268 1768.52 35.8189C1777.66 39.5416 1786.45 36.7496 1791.02 29.304C1792.78 26.5119 1793.48 22.7892 1793.48 19.3766C1793.48 16.2743 1791.37 13.7925 1787.51 12.8618C1784.34 12.2413 1781.18 12.8618 1779.42 15.3436C1777.31 18.1357 1777.31 20.9278 1780.12 23.4096C1780.83 24.0301 1780.83 24.6506 1781.18 25.271C1772.74 32.7166 1765.36 30.5449 1760.79 20.6176C1754.11 18.446 1748.13 17.205 1743.21 14.413C1740.75 13.172 1740.05 9.44927 1738.64 7.27766C1740.05 6.34697 1740.4 5.7265 1740.75 5.7265C1752.35 8.20835 1762.9 4.17534 1773.8 2.31396C1785.75 -0.167883 1796.29 0.762815 1804.03 10.38C1805.43 9.44927 1806.14 8.82881 1806.84 8.20835C1813.17 1.69351 1821.25 0.142357 1830.39 1.69351C1835.32 2.6242 1840.24 3.55489 1845.16 4.79581C1852.89 6.6572 1860.27 7.89812 1868.36 5.7265C1869.41 15.0334 1864.84 18.1357 1848.32 19.3766C1846.56 23.4096 1845.51 28.6836 1838.83 29.304C1834.61 29.9245 1830.39 29.9245 1827.58 25.5813C1828.28 24.3403 1829.69 23.0994 1830.39 21.5483C1831.8 18.1357 1830.04 15.0334 1826.53 13.4823C1823.01 11.9311 1818.79 12.8618 1817.04 15.9641C1814.22 19.9971 1814.22 24.3403 1817.04 28.6836C1821.96 36.7495 1832.15 39.8519 1841.64 35.8189C1848.32 33.0268 1854.3 29.304 1859.92 25.271C1868.36 19.9971 1876.45 14.1027 1884.88 8.82881C1888.05 6.96743 1891.56 5.41627 1895.43 4.17535C1909.84 -0.788337 1919.33 1.6935 1928.82 12.2413C1929.53 12.8618 1930.23 13.7925 1931.29 15.0334C1933.39 13.172 1935.15 11.3107 1936.91 9.7595C1945.7 1.6935 1954.84 -0.788344 1966.79 3.86511C1974.88 6.96742 1982.26 11.6209 1989.64 16.2743C1998.43 21.5483 2006.51 27.7529 2015.3 33.0268C2019.17 35.1984 2024.09 36.7496 2028.66 37.37C2037.8 38.3007 2046.24 33.0268 2048 24.9608C2048.7 22.1687 2047.64 19.0664 2046.24 16.5846C2044.48 13.172 2039.56 12.2413 2036.04 14.1027C2032.18 15.9641 2031.12 19.6869 2033.58 23.4096C2033.93 24.3403 2034.64 24.9608 2035.34 25.8915C2027.96 33.6473 2020.22 31.4756 2014.95 21.238C2008.62 19.3766 2003 18.1357 1998.08 15.6539C1995.27 14.413 1994.21 10.6902 1992.45 7.89812C1994.21 6.96743 1994.91 6.34696 1995.62 6.65719C2003.7 8.51858 2011.08 7.27765 2018.82 5.41627C2022.33 4.48557 2025.85 4.17535 2029.36 3.24466C2040.61 0.452587 2050.46 2.00374 2058.19 11.3107C2059.6 10.38 2061 9.44926 2062.06 8.51857C2068.03 2.31396 2075.77 1.07305 2084.2 2.6242C2089.48 3.55489 2094.4 4.79581 2099.67 5.7265C2107.41 6.6572 2115.49 7.27765 2123.58 8.20835C2122.52 16.8948 2118.65 19.3766 2103.54 20.6176C2096.51 32.0961 2090.53 33.9575 2082.09 27.1324C2082.8 26.2017 2083.5 25.271 2084.2 24.0301C2086.31 20.3073 2085.61 16.8948 2082.09 15.0334C2078.93 13.172 2074.01 14.1027 2071.55 16.8948C2069.09 19.9971 2068.38 23.0994 2069.79 26.8222C2073.31 35.8189 2082.8 40.4723 2093.34 37.6802C2096.86 36.7496 2100.37 35.1984 2103.19 33.337C2111.27 28.0631 2119.36 22.479 2127.44 17.205C2132.01 14.1027 2136.58 11.3106 2141.15 8.51857C2148.89 4.17534 2157.32 2.00374 2166.81 2.00374C2204.43 2.31397 2252.04 2.31397 2290.01 2.00374C2302.67 2.00374 2313.91 5.10604 2323.76 11.6209C2333.6 17.8255 2342.74 24.6506 2352.58 31.1654C2356.1 33.6473 2360.32 35.5086 2364.18 37.0598C2374.03 40.4723 2383.87 36.7495 2388.44 28.6836C2390.55 25.271 2390.55 21.5483 2388.79 17.8255C2386.68 14.1027 2382.11 12.5516 2378.25 14.413C2374.03 16.2743 2372.97 19.6869 2375.43 23.7199C2375.79 24.6506 2376.49 25.271 2377.19 26.2017C2370.51 34.2677 2362.43 31.7859 2356.45 20.3073C2350.47 19.9971 2344.15 20.3073 2339.58 15.9641C2337.12 13.4823 2335.36 11.0004 2335.71 6.65719C2347.66 10.0697 2358.21 6.03673 2368.75 3.86511C2381.06 1.38327 2392.31 1.07305 2400.39 11.9311C2401.8 10.6902 2402.85 10.38 2403.56 9.44927C2409.88 2.93443 2417.97 1.38327 2427.11 2.93442C2432.03 3.86512 2436.95 4.79581 2441.87 6.03673C2449.61 7.89811 2456.99 9.44926 2465.08 6.96742C2466.83 15.9641 2461.21 19.6869 2445.04 20.6176C2442.93 24.3403 2442.23 29.9245 2435.9 30.545C2431.68 31.1654 2427.46 31.1654 2424.3 27.1324C2425 26.2017 2425.35 25.271 2426.05 24.3403C2428.16 21.8585 2428.52 19.0664 2426.05 16.8948C2424.3 15.3436 2421.13 14.413 2418.67 14.413C2415.16 14.413 2413.4 16.5846 2412.34 19.3766C2409.53 27.7529 2416.91 37.37 2427.11 38.3007C2433.44 38.9212 2439.41 37.37 2444.69 33.9575C2452.42 28.9938 2459.8 23.7199 2467.54 18.7562C2474.92 14.1027 2481.95 9.13904 2490.03 5.7265C2504.1 -0.788337 2515.7 2.31397 2525.54 13.4823C2526.24 14.1027 2526.95 15.0334 2528 15.9641C2529.41 14.7232 2530.46 13.7925 2531.52 12.5516C2540.66 2.6242 2551.2 -0.167878 2564.56 5.10604C2573 8.51858 2580.73 13.7925 2588.47 18.7562C2596.2 23.7199 2603.58 28.9938 2611.31 33.9575C2616.59 37.37 2622.21 38.9212 2628.89 38.3007C2638.73 37.37 2646.12 28.9938 2644.01 20.3073C2643.3 17.205 2641.2 14.413 2637.68 14.413C2635.22 14.413 2632.06 15.3437 2630.3 16.5846C2627.49 18.7562 2627.84 21.8585 2630.65 24.6506C2631.35 25.271 2631.7 26.2017 2632.06 27.1324C2622.92 34.2677 2616.24 32.0961 2611.31 20.6176C2605.34 19.6869 2598.31 20.9278 2593.74 15.6539C2591.98 13.4823 2590.93 10.6902 2589.87 7.58788C2603.58 10.38 2615.89 5.10605 2628.19 3.24466C2638.03 1.69351 2646.47 2.93442 2653.15 10.0697C2653.5 10.6902 2654.55 11.0004 2655.26 11.3107C2655.96 10.6902 2656.66 10.38 2657.37 10.0697C2664.05 2.62419 2672.83 1.38327 2682.33 2.93442C2687.25 3.86512 2692.17 5.41627 2697.09 6.03673C2704.82 6.96742 2712.56 7.58789 2720.29 8.20835C2719.94 16.5846 2716.42 19.0664 2699.9 20.6176C2693.57 31.7859 2687.95 33.6472 2679.16 27.1324C2679.86 25.8915 2680.57 24.6506 2681.27 23.4096C2683.73 20.3073 2682.33 17.8255 2679.51 15.3436C2677.05 13.172 2672.48 13.172 2669.32 15.3436C2665.8 18.1357 2665.1 21.5483 2665.8 25.5813C2668.26 35.5086 2680.57 41.0928 2691.47 36.7496C2697.79 34.2677 2703.42 30.5449 2709.39 26.8222C2719.24 20.6176 2728.73 14.1027 2738.57 7.89812C2745.25 3.55489 2753.34 2.31396 2761.77 2.31396C2800.09 2.62419 2838.41 2.62419 2876.37 2.31396C2889.38 2.31396 2899.93 5.7265 2910.12 12.2413C2917.86 17.205 2924.89 22.7892 2932.62 27.7529C2937.89 31.1654 2943.52 34.5779 2949.85 37.0598C2960.74 41.403 2972.34 36.1291 2975.16 26.512C2976.21 22.7892 2975.51 19.6869 2973.05 16.5846C2970.59 13.7925 2965.66 13.172 2962.5 15.3436C2959.34 17.5153 2958.63 20.3073 2960.74 23.7199C2961.45 24.6506 2962.15 25.8915 2962.85 26.8222C2955.12 34.2677 2948.79 32.0961 2941.76 20.6176C2926.29 19.0664 2922.78 16.8948 2921.37 7.58788C2922.07 7.27765 2923.13 6.65719 2923.83 6.96742C2932.62 9.44926 2941.06 6.65719 2949.49 5.10604C2951.6 4.79581 2953.71 4.17534 2956.17 3.86511C2967.77 1.07304 2978.32 2.00374 2986.05 11.3107C2987.11 11.0004 2987.81 11.0004 2988.16 11.0004C2995.55 2.93443 3005.04 1.38327 3016.29 3.86511C3019.45 4.48558 3022.96 5.10604 3026.13 5.7265C3034.57 7.89812 3043 9.13904 3051.79 7.27766C3051.79 16.8948 3046.87 19.9971 3031.4 20.9278C3028.94 24.6506 3028.24 30.545 3021.21 31.1654C3017.34 31.4756 3015.23 31.1654 3010.31 27.7529C3011.01 26.5119 3012.07 25.5813 3012.77 24.3403C3014.88 20.9278 3013.82 17.8255 3010.66 15.9641C3007.5 14.1027 3001.87 14.413 3000.11 17.5153C2998.71 20.3073 2997.65 23.7199 2998.01 26.512C3000.11 36.4393 3011.72 42.0235 3022.61 37.9905C3028.59 35.8189 3033.86 32.7166 3039.14 29.304C3047.22 24.3403 3054.6 18.446 3062.69 13.4823C3067.96 10.0697 3073.59 7.27765 3079.56 5.10604C3091.51 1.07304 3102.06 3.86512 3110.15 12.8618C3111.2 14.1027 3112.26 15.0334 3113.66 16.8948C3115.07 15.3436 3116.12 14.1027 3117.53 12.8618C3125.97 3.86512 3136.86 0.762815 3149.17 5.7265C3157.96 9.44927 3166.04 14.7232 3174.13 19.3766C3181.86 24.0301 3188.89 29.304 3196.27 34.2677C3199.44 36.1291 3202.95 37.9905 3206.82 38.9212C3220.18 42.3337 3233.18 32.0961 3229.67 20.9278C3228.61 17.205 3225.8 15.3436 3221.93 15.3436C3218.42 15.3436 3215.26 16.5846 3214.9 19.6869C3214.55 22.1687 3215.96 25.271 3217.01 29.304C3215.61 32.0961 3211.74 32.4063 3207.17 32.0961C3200.49 31.4756 3198.73 27.1324 3196.98 22.1687C3191 21.238 3183.97 22.1687 3179.4 17.205C3177.64 15.0334 3176.59 12.2413 3174.83 9.13904C3181.86 8.8288 3187.84 9.13904 3193.46 8.20835C3200.49 7.27765 3207.52 5.41627 3214.9 4.17535C3223.34 2.93443 3231.43 3.55489 3237.4 9.7595C3239.16 11.3107 3240.92 13.4823 3241.27 15.3436C3242.68 28.0631 3243.03 40.4723 3228.61 48.2281C3227.91 48.5383 3227.21 48.8485 3225.8 49.469C3228.61 51.6406 3230.72 53.1918 3232.83 54.7429C3238.46 59.7066 3242.32 64.9805 3241.62 72.4261C3241.27 74.9079 3241.62 77.3897 3241.62 79.8716C3241.62 88.558 3234.59 95.3831 3224.75 96.0036C3220.88 96.3138 3216.66 96.3138 3213.15 95.6933C3201.19 93.5217 3189.24 89.799 3176.59 91.9706C3177.29 82.3534 3181.16 79.8716 3196.98 78.0102C3202.95 66.8419 3208.22 65.2908 3218.07 71.4954C3217.72 72.4261 3217.01 73.667 3216.31 74.2874C3214.2 76.7693 3213.5 79.8716 3215.96 81.733C3218.07 83.2841 3221.23 84.2148 3224.04 84.2148C3227.56 84.2148 3229.32 81.733 3230.02 78.9409C3232.83 68.3931 3220.53 57.8452 3208.22 60.9475C3203.65 61.8782 3199.08 64.0498 3195.22 66.2215C3187.48 71.1851 3180.1 76.4591 3172.37 81.4227C3167.8 84.525 3163.23 87.3171 3158.66 90.1092C3142.84 99.1059 3127.37 99.7263 3113.66 82.9739C3112.61 83.9046 3111.9 84.8353 3111.2 85.766C3101.71 96.3138 3090.46 99.7264 3077.1 93.5217C3066.91 88.8683 3057.77 82.3534 3048.63 76.7693C3041.6 72.4261 3034.92 67.4624 3027.18 63.4294C3016.29 57.8452 3007.15 59.7066 3000.47 67.7726C2997.65 71.4954 2996.25 75.2181 2998.36 79.5614C3000.11 83.9046 3004.69 85.766 3009.26 83.9046C3013.83 82.3534 3014.88 78.6307 3012.07 74.2874C3011.72 73.3568 3011.01 72.7363 3010.66 71.8056C3019.1 64.3601 3025.43 66.2215 3031.4 77.7C3040.54 78.6307 3050.74 78.9409 3052.49 89.799C3051.79 90.4194 3051.44 91.0399 3051.09 90.7297C3040.54 89.799 3030.35 91.6604 3020.5 94.1422C3017.69 94.7627 3014.53 95.0729 3011.36 95.3831C3002.22 96.3138 2994.14 94.4524 2988.51 87.3171C2987.46 87.6274 2986.41 87.6274 2985.7 88.2478C2978.67 96.3138 2968.83 96.6241 2958.99 95.0729C2947.03 93.2115 2935.08 89.1785 2922.43 91.3501C2923.83 81.4228 2927.35 79.2511 2942.81 77.3898C2949.85 66.2215 2954.77 64.6703 2963.91 70.8749C2963.2 72.1158 2962.5 73.3568 2961.8 74.5977C2959.69 78.3204 2960.39 80.8023 2963.91 82.9739C2967.42 85.1455 2971.64 84.8353 2974.45 81.733C2977.27 78.6307 2977.97 74.9079 2976.56 71.1851C2973.05 61.8782 2961.45 56.6043 2951.6 61.2578C2941.76 65.9112 2932.97 72.1158 2923.83 77.7C2916.8 82.0432 2909.77 86.6967 2902.39 91.0399C2896.41 94.4524 2889.38 95.6933 2882.35 95.6933C2842.98 95.6933 2803.61 95.3831 2764.23 95.6933C2753.69 95.6933 2744.2 93.2115 2735.76 87.9376C2725.92 81.4228 2716.07 74.5977 2706.23 68.0828C2701.66 65.2908 2696.74 62.4987 2691.47 60.9475C2681.27 57.2248 2669.67 62.8089 2667.21 72.4261C2666.51 74.5977 2666.86 77.3898 2667.91 79.5614C2669.67 83.9046 2674.24 85.4557 2678.81 83.5944C2683.73 81.4227 2684.43 78.6307 2681.27 73.9772C2680.92 73.0465 2680.22 72.1158 2679.86 71.4954C2687.95 64.3601 2694.63 66.2215 2699.9 76.1488C2706.23 78.3204 2712.21 79.5614 2717.48 82.3534C2719.94 83.5944 2720.64 87.3171 2722.05 89.4887C2720.99 90.4194 2720.64 91.0399 2720.29 90.7297C2709.04 89.4887 2698.5 91.9706 2687.95 94.1422C2685.84 94.4524 2683.73 95.0729 2681.27 95.0729C2671.43 96.3138 2662.64 94.4524 2656.66 85.766C2654.91 87.3171 2654.2 88.5581 2653.15 89.4887C2648.93 93.5217 2643.66 95.6934 2637.33 95.3831C2632.06 95.0729 2626.78 94.7627 2621.51 93.5217C2611.67 91.3501 2602.18 88.8683 2591.98 91.3501C2590.93 80.1818 2600.77 77.7 2612.02 77.7C2617.99 65.9112 2623.62 63.7396 2633.11 70.8749C2632.41 71.8056 2631.7 72.7363 2631 73.9772C2628.54 78.3204 2629.95 82.0432 2634.52 83.5944C2638.73 85.1455 2643.3 82.9739 2645.06 78.6307C2648.58 68.7033 2637.33 57.535 2625.38 59.7066C2621.16 60.3271 2616.59 61.8782 2613.07 64.0498C2603.93 69.634 2595.5 75.8386 2586.71 81.4227C2580.73 85.1455 2574.76 89.1785 2568.43 91.9706C2553.31 98.4854 2541.71 96.0036 2531.52 83.9046C2531.16 83.2841 2530.46 82.9739 2529.41 82.0432C2528.35 83.2841 2527.3 84.5251 2526.24 85.4558C2516.4 95.6934 2505.15 98.4854 2491.79 92.591C2481.95 88.2478 2473.16 81.733 2464.02 76.1488C2456.29 71.4954 2449.26 66.2215 2441.17 62.1885C2431.33 57.2248 2421.48 59.3964 2416.21 67.1521C2414.1 70.2544 2413.75 74.2875 2413.75 77.7C2413.75 81.1125 2416.91 83.9046 2420.78 84.2148C2423.24 84.2148 2426.41 82.9739 2428.16 81.4227C2430.62 78.9409 2429.92 75.8386 2427.46 73.3568C2427.11 72.7363 2426.76 72.1158 2426.41 71.4954C2434.49 64.0498 2441.17 65.9112 2447.5 77.3898C2463.32 79.2511 2466.48 81.4228 2468.24 91.3501C2455.94 88.8683 2444.33 92.5911 2432.73 94.7627C2428.52 95.6934 2423.95 95.3831 2419.38 95.3831C2412.34 95.3831 2407.78 91.0399 2403.21 86.0762C2394.42 97.5547 2382.46 96.624 2369.81 93.832C2364.54 92.9013 2359.61 91.3501 2354.34 90.7297C2349.07 90.1092 2343.79 90.7297 2338.52 90.7297C2338.87 82.0432 2342.74 79.5614 2359.26 77.3898C2364.89 66.2215 2371.57 64.0498 2380.35 71.4954C2379.65 72.1158 2379.3 73.0465 2378.6 73.667C2375.79 77.7 2376.14 80.8023 2380.35 82.9739C2384.22 85.1455 2388.79 84.2148 2391.25 80.4921C2392.31 78.3204 2393.01 75.8386 2393.01 73.3568C2392.31 64.3601 2380.71 57.2248 2370.86 60.0168C2364.54 61.8782 2358.56 64.9805 2353.29 68.3931C2344.85 73.3568 2337.12 79.2511 2329.38 84.8353C2318.48 92.591 2306.18 95.6934 2291.77 95.3831C2254.5 94.7627 2207.59 95.0729 2170.33 95.3831C2159.43 95.3831 2149.94 92.9013 2141.15 87.3171C2131.31 80.8023 2121.82 73.9772 2111.62 67.4624C2107.05 64.3601 2101.43 62.1885 2096.16 60.0168C2087.02 56.2941 2074.36 64.0498 2072.95 73.0465C2072.6 75.8386 2074.01 78.9409 2075.42 81.4227C2077.52 84.525 2082.09 84.8353 2085.26 82.9739C2089.13 80.8023 2090.18 78.0102 2087.72 73.9772C2087.02 73.0465 2086.31 72.1158 2085.61 71.1851C2093.7 63.7396 2100.37 65.601 2106.7 77.0795C2115.49 78.3204 2126.04 78.3204 2127.79 89.4887C2127.09 90.1092 2126.74 90.4194 2126.39 90.4194C2115.84 89.1785 2105.65 91.3501 2095.8 93.5217C2093.34 94.1422 2090.88 94.4524 2088.42 94.7627C2078.23 96.0036 2069.09 94.7627 2063.81 86.3864C2062.76 86.6967 2062.06 86.6967 2061.71 87.0069C2054.32 96.6241 2043.78 95.6934 2032.88 94.4524C2029.36 94.1422 2025.85 92.591 2022.33 92.2808C2014.25 91.3501 2006.16 90.4194 1998.08 89.799C1997.02 80.8023 2007.22 77.3898 2018.11 78.0102C2024.44 65.9112 2029.72 64.0498 2039.56 70.8749C2038.86 72.1158 2038.15 73.3568 2037.45 74.5977C2035.34 78.3204 2036.04 81.1125 2040.26 83.2841C2043.78 85.1455 2048.7 84.5251 2050.46 81.1125C2051.86 78.3204 2052.57 74.9079 2051.86 71.8056C2050.1 64.0498 2038.5 56.2941 2028.31 60.6373C2023.39 62.4987 2018.47 64.6703 2014.25 67.4624C2006.16 72.7363 1998.43 78.6307 1990.34 83.9046C1985.42 87.0069 1980.15 90.1092 1974.52 92.591C1960.11 98.7957 1948.51 96.3138 1938.67 85.4558C1937.96 84.5251 1936.91 83.5944 1935.86 82.3534C1934.45 83.9046 1933.04 85.4557 1931.99 86.6967C1922.5 96.3138 1911.6 99.1059 1898.59 92.9013C1888.4 88.2478 1878.91 81.4228 1869.41 75.5284C1861.68 70.8749 1854.65 65.601 1846.56 61.8782C1837.42 57.535 1827.93 60.0168 1823.01 67.1521C1820.9 69.9442 1820.2 73.667 1820.2 76.7693C1819.85 80.8023 1823.01 83.9046 1826.88 84.2148C1829.34 84.2148 1832.5 83.2841 1834.26 81.733C1837.07 78.9409 1836.37 75.8386 1833.56 73.0465C1833.21 72.7363 1833.21 72.1158 1832.85 71.8056C1840.24 63.7396 1847.97 65.9112 1853.6 77.3898C1862.74 78.3204 1872.93 78.6307 1874.69 89.4887C1873.63 90.1092 1873.28 90.7297 1872.93 90.7297C1863.09 89.799 1853.24 91.6604 1843.75 93.832C1842.7 94.1422 1841.64 94.4524 1840.59 94.7627C1826.18 97.5547 1820.55 96.0036 1808.95 86.3864C1800.86 97.2445 1788.91 96.624 1776.61 93.832C1766.41 91.6604 1755.87 88.8683 1745.32 91.0399C1744.97 81.4227 1749.54 78.6307 1765.01 77.0795C1771.69 65.601 1777.31 63.7396 1786.45 70.8749C1785.75 71.8056 1785.05 72.7363 1784.34 73.667C1781.88 78.0102 1782.94 81.1125 1787.15 82.9739C1791.02 84.8353 1797 82.9739 1798.05 78.9409C1798.76 75.5284 1798.76 71.4954 1797 68.3931C1793.13 60.6373 1783.29 56.9145 1774.5 60.6373C1766.06 64.0498 1758.33 69.3238 1750.59 73.9772C1741.81 79.2511 1733.72 85.4557 1724.58 90.4194C1708.76 99.1059 1694 96.0036 1684.15 82.9739C1683.8 82.6637 1683.45 82.3534 1682.75 82.0432C1681.34 83.5944 1679.94 85.1455 1678.53 86.6967C1670.8 94.7627 1660.95 96.9343 1649.7 93.832C1638.1 90.7297 1629.31 83.5944 1619.82 77.3898C1612.79 72.7363 1606.11 68.0828 1598.73 63.7396C1595.92 61.8782 1592.4 60.6373 1588.89 59.7066C1579.04 57.535 1568.5 63.4294 1566.39 72.1158C1564.98 77.3897 1568.15 82.6637 1573.07 83.2841C1576.23 83.9046 1579.04 82.9739 1581.15 80.8023C1583.26 78.6307 1582.91 76.1488 1581.15 73.9772C1580.45 73.0465 1579.75 71.8056 1579.04 70.8749C1587.48 63.7396 1593.81 65.2908 1600.14 76.7693C1609.28 77.7 1619.12 78.3204 1621.23 89.4887C1620.17 89.799 1619.47 90.4194 1618.77 90.4194C1609.63 89.4887 1600.84 90.4194 1592.05 92.9013C1589.24 93.832 1586.08 94.1422 1582.91 94.4524C1572.37 95.6934 1562.52 95.0729 1555.84 85.1455C1547.05 96.3138 1535.1 96.0036 1522.8 93.5217C1512.25 91.3501 1501.71 88.558 1490.46 90.7297C1491.51 80.8023 1495.03 78.6307 1510.85 76.7693C1517.53 65.601 1522.8 63.7396 1531.94 70.5647C1531.24 71.8056 1530.18 72.7363 1529.48 73.9772C1527.37 77.7 1528.78 81.1125 1532.64 82.6637C1536.16 84.2148 1541.43 83.2841 1542.84 80.1818C1543.89 77.7 1544.95 74.9079 1544.24 72.4261C1542.48 62.8089 1531.24 56.6043 1520.69 60.0168C1513.66 62.4987 1506.98 66.5317 1500.65 70.5647C1491.51 76.1488 1482.72 82.6637 1473.58 88.5581C1466.2 93.2115 1457.76 95.0729 1448.27 95.0729C1409.6 94.7627 1088.58 94.7627 1049.91 95.0729C1039.02 95.0729 1029.53 92.5911 1020.74 87.0069C1013.35 82.3534 1006.32 76.7693 998.59 72.1158C991.911 67.7726 984.88 63.4294 977.146 60.3271C968.006 56.6043 958.163 60.3271 953.945 68.3931C951.835 71.8056 951.835 75.5284 953.593 79.2511C955.702 83.5944 960.624 84.8353 964.842 82.6637C969.412 80.4921 969.764 77.0795 966.6 72.7363C966.248 72.1158 965.897 71.4954 965.194 70.8749C972.576 63.1192 980.661 64.9805 985.935 76.4591C995.074 77.0795 1005.27 77.7 1007.38 88.8683C1006.68 89.1785 1005.97 89.799 1005.27 89.799C995.426 88.5581 985.583 90.1092 976.092 92.591C975.037 92.9013 973.982 92.9013 972.928 93.2115C958.515 96.0036 953.593 94.7627 941.289 85.4558C934.259 95.3831 923.361 95.3831 912.112 93.832C908.596 93.2115 905.081 91.9706 901.566 91.6604C893.48 90.7297 885.746 89.799 877.31 88.8683C876.607 81.1125 881.176 78.0102 897.347 76.1488C903.323 64.6703 910.002 62.8089 918.439 70.2545C917.385 71.4954 915.979 73.0465 915.627 74.2874C914.572 77.0795 915.276 79.5614 918.088 81.4227C921.252 83.2841 924.416 83.5944 927.228 81.4227C930.743 78.9409 932.149 73.667 930.04 69.0135C926.876 60.9475 916.682 55.9838 907.893 59.0862C900.863 61.568 894.535 65.2908 888.207 69.0135C879.067 74.5977 870.63 81.1125 861.139 87.0069C856.92 89.4887 852.35 91.6604 847.429 92.9013C836.883 95.6934 827.391 94.4524 819.657 86.6967C817.9 84.8353 816.142 82.9739 814.033 80.8023C812.627 82.3534 811.572 83.5944 810.517 85.1455C802.081 94.1422 790.128 97.2445 778.176 91.9706C768.685 87.6274 759.896 81.733 750.756 76.1488C743.022 71.4954 735.64 65.601 727.555 61.568C717.009 55.9839 707.166 58.1555 700.838 66.2215C698.026 69.634 697.323 73.3568 698.377 77.3898C699.432 80.8023 701.893 82.9739 705.056 82.9739C707.517 82.9739 710.329 81.733 712.087 80.1818C714.899 77.7 714.548 74.9079 711.735 72.1158C711.032 71.4954 711.033 70.8749 710.681 70.2545C718.415 62.4987 725.797 64.6703 731.422 76.7693C737.046 77.0795 743.374 76.4591 748.295 80.8023C751.108 83.2841 752.514 85.766 752.514 90.4194C739.507 87.3171 727.906 91.6604 715.954 93.5217C705.056 95.3831 694.51 95.0729 687.831 85.4558C686.776 85.766 686.073 85.766 685.722 86.3864C678.34 95.6934 667.442 95.0729 656.896 93.5217C653.38 92.9013 649.865 91.6604 646.35 91.3501C638.264 90.4194 630.179 89.799 622.445 88.8683C623.5 80.1818 626.312 78.3204 642.483 76.1488C649.513 64.9805 654.435 63.1192 663.575 69.9442C663.223 70.8749 662.52 72.1158 662.169 73.0465C659.357 77.3898 660.06 80.1818 664.63 82.3534C668.496 84.2148 673.066 83.2841 675.176 79.5614C676.23 77.7 676.933 75.2181 676.933 73.0465C676.23 64.0498 664.981 56.6043 655.138 59.0862C650.217 60.3271 645.647 62.1885 641.428 64.6703C632.64 70.2545 623.851 76.4591 615.414 82.3534C612.602 84.2148 609.438 86.0762 606.626 87.9376C598.541 92.591 590.104 94.7627 580.261 94.7627C541.592 94.4524 503.274 94.4524 464.605 94.7627C453.356 94.7627 443.513 92.2808 434.724 86.6967C427.342 82.0432 420.311 76.4591 412.577 71.8056C405.898 67.7726 399.219 63.4294 391.837 60.3271C379.884 55.3634 369.69 63.1192 367.581 70.2545C366.878 73.0465 366.878 76.1488 367.932 78.9409C369.69 83.2841 374.611 84.8353 378.83 82.9739C383.4 80.8023 384.103 78.0102 381.291 73.3568C380.939 72.7363 380.587 72.1158 380.236 71.4954C387.267 63.4294 394.649 65.2908 400.977 77.0795C410.117 78.0102 420.311 78.3205 421.717 90.1092C420.311 90.4194 419.257 90.7297 418.202 90.4194C409.765 89.4887 401.328 90.7297 393.243 92.9013C389.727 93.832 386.212 94.4524 382.345 94.7627C368.635 96.0036 366.878 95.3831 355.628 86.3864C347.895 96.6241 336.645 96.3138 325.045 94.1422C313.795 91.9706 302.898 88.2478 291.297 91.3501C292 81.1125 297.273 77.7 311.686 78.0102C313.795 73.667 315.202 68.0828 322.232 67.1521C325.748 66.5317 327.857 67.4624 332.778 71.4954C332.075 72.4261 331.021 73.3568 330.669 74.2874C328.208 78.3204 329.966 82.3534 334.536 83.9046C338.403 85.1455 342.973 83.2841 344.379 79.2511C345.785 75.2181 345.785 70.8749 342.622 67.1521C336.997 60.0168 328.56 57.535 319.772 60.9475C313.092 63.7396 307.116 67.4624 301.14 71.1851C292.352 76.7693 283.915 82.9739 274.775 88.5581C270.908 91.0399 266.338 92.9013 262.12 94.1422C250.87 97.2445 241.027 95.0729 233.293 87.0069C231.887 85.4557 230.481 83.9046 229.075 82.0432C228.02 83.2841 227.317 84.2148 226.263 85.1455C216.068 96.0036 204.819 98.7957 190.406 92.2808C180.914 87.9376 172.478 81.4228 163.338 75.8386C155.955 71.1851 148.925 66.2215 141.191 62.1885C131.348 57.2248 121.505 59.0862 115.88 66.5317C113.771 69.3238 113.068 73.0465 112.716 76.1488C112.365 79.8716 115.529 83.5944 119.395 83.9046C121.856 83.9046 125.02 82.9739 126.778 81.4227C129.942 78.9409 128.887 75.5284 126.075 72.7363C125.723 72.1158 125.372 71.4954 125.02 70.8749C133.457 63.7396 140.488 65.601 145.761 77.0795C154.549 78.3204 165.095 78.0102 166.853 89.1785C166.15 89.799 165.798 90.4194 165.447 90.1092C154.901 88.8683 144.706 91.3501 134.863 93.2115C129.59 94.1422 123.614 94.7627 118.341 94.4524C108.498 94.1422 101.819 87.6274 101.819 78.9409C101.819 78.3204 101.819 77.3897 101.819 76.7693C100.061 64.6703 104.631 55.3634 116.935 49.469C116.583 48.5383 116.232 47.9179 115.88 47.9179C104.279 41.0928 100.764 31.4756 101.819 19.6869C102.873 9.44927 109.552 2.31397 121.505 2.6242C126.778 2.6242 132.051 3.86512 137.324 4.79581C142.948 5.72651 148.221 7.27766 153.846 7.89812C158.065 8.20835 162.634 7.58788 166.853 7.58788C167.556 16.5846 162.986 19.3766 146.815 20.9278C140.839 32.4063 134.512 34.2677 125.723 27.1324C126.075 26.5119 126.426 25.271 127.129 24.6506C129.59 22.1687 129.59 19.6869 127.832 17.205C126.075 14.7232 122.911 13.7925 119.747 14.413C115.88 15.0334 114.122 17.205 113.419 20.6176C111.662 29.304 118.692 37.6802 128.887 38.6109C135.215 39.2314 140.839 37.6802 145.761 34.5779C153.495 29.6143 160.877 24.3403 168.611 19.3766C173.884 15.9641 179.508 12.2413 185.133 9.13904C200.249 0.762811 214.662 -1.4088 229.427 15.9641C230.481 15.0334 231.887 14.1027 232.59 13.172C237.512 0.452578 248.41 -2.33949 262.12 3.55489C270.205 7.27765 277.939 12.2413 285.321 16.8948C292.703 21.5483 299.734 27.1324 307.468 31.4756C311.686 33.9575 317.311 35.5086 322.232 36.1291C331.021 37.0598 338.755 31.7859 340.512 24.0301C340.864 21.8585 340.864 19.6869 340.161 17.5153C338.403 12.8618 333.482 10.6902 328.912 12.8618C324.693 14.7232 323.99 18.1357 326.802 22.7892C327.154 23.4096 327.505 24.0301 327.857 24.6506C320.475 32.4063 312.389 30.2347 307.116 18.7562C301.14 18.1357 294.109 18.7562 289.539 13.7925C287.43 11.6209 284.969 9.13904 286.727 5.10604C298.328 8.20835 309.225 4.17535 320.123 2.00374C332.075 -0.478109 342.973 -0.167883 351.058 10.0697C352.465 8.8288 353.519 8.20834 354.222 7.58788C360.198 1.07304 368.284 -0.478107 377.072 1.07305C382.697 2.00374 388.321 3.86512 394.297 4.48558C401.68 5.41627 409.062 5.72651 416.444 6.34697C416.093 14.7232 412.577 17.205 396.055 19.0664C390.079 30.2347 384.103 32.0961 375.314 25.5813C376.017 24.3403 376.721 23.0994 377.424 21.8585C379.181 18.446 378.478 15.6539 374.963 13.4823C371.799 11.6209 367.581 11.9311 365.12 14.413C361.604 17.8255 361.253 21.8585 363.011 26.2017C367.229 35.1984 378.478 39.5416 389.024 34.5779C397.11 30.8552 404.492 25.5813 411.874 20.9278C418.905 16.5846 425.233 11.9311 432.263 7.58788C440.7 2.62419 449.84 0.142356 460.035 0.142356C498.001 0.452586 535.967 0.452586 573.933 0.142356C584.479 0.142356 593.971 2.31396 602.408 7.58788C611.899 13.4823 620.687 19.9971 629.827 25.8915C635.1 29.304 640.373 32.4063 646.35 34.8882C656.193 38.6109 666.739 34.5779 670.957 26.2017C672.715 22.7892 672.715 19.3766 670.957 16.2743C668.497 12.2413 663.927 10.6902 659.708 12.8618C655.841 15.0334 655.138 18.1357 657.95 22.1687C658.302 23.0994 659.005 23.7199 659.357 24.6506C651.271 32.0961 644.24 30.2347 638.616 18.7562ZM642.483 46.3667C629.124 42.0235 618.227 33.337 606.977 25.271C603.814 22.7892 600.298 20.9278 596.783 18.7562C589.752 14.413 582.37 12.5516 573.933 12.5516C537.725 12.8618 501.516 12.8618 465.308 12.5516C452.653 12.5516 442.458 15.6539 432.615 22.1687C419.608 31.1654 408.007 42.0235 391.485 46.6769C397.461 49.469 402.734 51.6406 407.656 54.4327C412.929 57.535 417.499 61.2578 422.42 64.3601C427.693 67.7726 432.615 71.4954 437.888 74.9079C444.567 79.2511 452.301 81.1125 460.738 81.1125C494.837 80.8023 528.936 81.1125 562.684 81.1125C590.104 81.1125 591.861 80.4921 612.954 64.9805C615.414 63.1191 617.524 61.2578 620.336 59.7066C627.015 55.3634 634.397 51.0202 642.483 46.3667ZM2693.57 46.9872C2704.47 50.7099 2713.26 56.9145 2722.05 63.1192C2727.32 67.1521 2732.95 70.8749 2738.57 74.5977C2745.25 78.9409 2752.63 81.1125 2761.42 81.1125C2800.09 80.8023 2839.11 80.8023 2877.78 81.1125C2885.16 81.1125 2891.49 79.5614 2897.47 75.8386C2900.98 73.667 2904.85 71.1851 2908.36 69.0135C2919.96 61.2578 2930.16 51.6406 2946.68 46.9872C2931.21 42.6439 2921.02 33.9575 2910.47 26.512C2906.25 23.7199 2902.04 20.9278 2897.47 18.1357C2891.14 14.413 2884.11 12.5516 2876.02 12.5516C2838.41 12.8618 2800.79 12.8618 2763.18 12.5516C2753.69 12.5516 2745.6 15.0334 2738.22 19.6869C2734.7 21.8585 2731.19 24.3403 2727.67 26.8222C2716.78 34.2677 2706.93 42.6439 2693.57 46.9872ZM2098.27 46.3667C2106 50.7099 2113.73 54.7429 2120.76 59.0862C2128.85 64.3601 2136.58 69.9442 2144.67 75.2181C2151 79.2511 2158.03 81.1125 2166.11 80.8023C2202.67 80.4921 2249.23 80.1818 2285.79 80.8023C2299.5 81.1125 2310.4 78.0102 2320.59 70.2545C2323.41 68.0828 2326.57 65.9112 2329.73 63.7396C2338.87 56.9145 2348.01 50.3997 2361.02 46.6769C2344.15 41.403 2332.9 31.1654 2320.24 22.4789C2318.13 20.9278 2315.67 19.6869 2313.21 18.1357C2306.18 13.7925 2298.45 11.6209 2289.66 11.6209C2253.8 11.9311 2208.3 11.9311 2172.44 11.6209C2159.08 11.3106 2147.83 15.0334 2137.64 22.1687C2124.98 31.7859 2114.08 42.0235 2098.27 46.3667ZM1509.44 46.9872C1494.68 41.7132 1484.13 31.7859 1472.18 24.0301C1469.37 22.1687 1466.9 20.3073 1464.09 18.7562C1457.06 14.413 1449.68 12.5516 1441.24 12.5516C1403.98 12.8618 1085.07 12.8618 1047.81 12.5516C1037.26 12.5516 1028.47 15.0334 1020.39 20.6176C1014.76 24.3403 1009.49 28.3733 1003.86 32.0961C995.426 37.37 986.638 42.6439 977.498 47.9179C989.098 51.0202 998.238 57.8452 1007.38 64.6703C1012.3 68.0828 1017.22 71.4954 1022.14 74.5977C1029.17 79.2511 1036.91 81.1125 1045.7 81.1125C1084.01 80.8023 1404.33 80.8023 1442.3 81.1125C1450.38 81.1125 1457.41 79.5614 1463.74 75.5284C1467.26 73.0465 1471.12 70.8749 1474.64 68.3931C1485.54 60.9475 1495.38 51.6406 1509.44 46.9872ZM1721.42 40.1621C1726.69 40.4723 1731.61 40.4723 1736.18 41.0928C1741.1 41.7132 1745.32 45.1258 1744.62 47.2974C1743.56 51.0202 1740.05 51.9508 1736.18 52.5713C1731.26 53.502 1726.34 53.8122 1721.42 54.4327C1719.31 68.0828 1710.52 73.667 1701.03 67.4624C1702.43 65.9112 1703.84 64.3601 1704.9 62.8089C1706.3 59.7066 1705.6 56.9145 1702.79 54.7429C1699.97 52.5713 1696.81 52.2611 1693.29 54.1225C1687.32 57.535 1684.51 65.9112 1686.97 71.8056C1690.13 79.2511 1696.46 82.3534 1704.9 80.8023C1708.06 80.1818 1711.22 78.9409 1714.04 77.3898C1719.66 74.2875 1725.28 70.5647 1730.56 67.1521C1738.29 62.1885 1745.67 56.9145 1753.41 51.9508C1756.57 50.0895 1760.44 48.8485 1764.3 47.2974C1757.63 43.8849 1751.65 41.403 1746.38 37.9905C1740.75 34.5779 1735.83 30.5449 1730.56 26.8222C1723.18 21.8585 1716.14 16.2743 1707 13.7925C1698.22 11.6209 1691.89 13.4823 1688.37 19.3766C1684.51 25.8915 1686.26 34.8882 1692.24 38.9212C1695.4 41.0928 1700.33 41.403 1703.14 39.2314C1705.95 37.0598 1706.65 33.0268 1704.19 29.6143C1703.14 28.3733 1702.08 27.1324 1700.68 25.5813C1713.33 21.8585 1719.66 26.2017 1721.42 40.1621ZM3067.61 54.1225C3058.82 52.8815 3048.98 55.0532 3043.71 46.6769C3046.52 42.6439 3050.38 41.0928 3055.31 40.7826C3059.52 40.4723 3064.09 40.4723 3068.31 40.1621C3069.37 26.5119 3075.7 21.8585 3088 25.8915C3086.94 27.1324 3085.89 28.3733 3085.19 29.304C3082.73 33.337 3083.78 37.9905 3087.3 39.8519C3091.16 42.0235 3095.73 40.7826 3098.9 37.0598C3103.82 31.7859 3104.17 23.7199 3099.6 18.446C3095.38 12.8618 3088.35 11.0004 3080.27 14.413C3072.88 17.5153 3065.85 21.8585 3059.17 26.2017C3049.33 32.7166 3040.54 40.4723 3028.94 44.8155C3027.18 45.436 3025.78 46.0565 3025.07 46.6769C3032.81 51.0202 3040.19 55.0532 3047.57 59.7066C3053.2 63.1191 3057.77 67.4624 3063.39 70.8749C3069.02 74.2875 3074.99 78.0102 3081.32 80.1818C3090.81 83.5944 3099.6 79.8716 3102.06 71.8056C3103.82 66.2215 3102.41 60.9475 3098.19 56.2941C3095.03 52.8815 3090.81 52.2611 3086.94 54.1225C3083.43 55.9838 3082.37 60.0168 3084.48 64.0498C3085.19 65.601 3086.59 66.8419 3087.65 68.0828C3076.75 72.7363 3069.72 67.7726 3067.61 54.1225ZM1907.73 25.8915C1906.68 27.1324 1905.62 28.0631 1904.92 29.304C1902.11 33.0268 1902.46 37.0598 1905.62 39.2314C1908.79 41.403 1914.41 41.403 1916.87 38.3007C1919.33 35.5086 1921.44 31.7859 1922.15 28.3733C1923.9 18.446 1913.36 10.38 1902.46 13.172C1898.59 14.1027 1895.08 15.6539 1891.91 17.5153C1884.53 22.1687 1877.85 27.1324 1870.47 31.7859C1861.68 37.37 1852.89 42.3337 1844.1 47.6076C1853.95 50.0895 1862.03 55.6736 1870.12 61.568C1877.15 66.5317 1884.18 71.4954 1891.56 76.1488C1895.08 78.3204 1898.94 79.8716 1902.81 80.8023C1911.25 82.6637 1917.22 79.8716 1920.74 73.0465C1923.9 67.1522 1921.44 58.4657 1915.82 54.7429C1912.3 52.5713 1908.44 52.2611 1905.62 54.4327C1902.46 56.6043 1901.76 60.3271 1903.87 63.7396C1904.92 65.2908 1906.33 66.8419 1907.38 68.3931C1895.78 72.7363 1889.1 68.0828 1886.29 54.1225C1883.83 54.1225 1881.37 54.1225 1878.91 53.8122C1874.69 53.1918 1870.47 52.5713 1866.95 51.0202C1862.03 48.8485 1862.03 45.7462 1866.95 43.2644C1870.12 41.7132 1873.63 41.0928 1877.15 40.7826C1880.31 40.4723 1883.48 40.4723 1886.64 40.4723C1888.75 26.2017 1895.43 21.5483 1907.73 25.8915ZM854.46 40.4723C856.92 40.4723 859.381 40.4723 861.842 40.4723C864.654 40.7826 867.467 40.7826 870.279 41.403C873.443 42.3337 877.31 43.2644 877.31 46.6769C877.31 50.3997 873.443 51.3304 870.279 52.2611C867.115 53.1918 863.6 53.1918 860.436 53.8122C858.326 54.1225 856.217 54.1225 854.108 54.4327C852.35 68.0828 844.617 73.0465 833.367 68.0828C834.07 67.1521 834.773 66.5317 835.125 65.9112C838.64 61.8782 838.64 57.535 835.125 54.7429C831.258 51.9509 825.985 52.8815 822.118 57.535C817.548 63.1192 817.548 70.8749 821.767 76.1488C825.634 81.1125 833.016 82.6637 840.75 80.1818C843.562 79.2511 846.374 78.0102 848.835 76.4591C853.053 73.9772 857.272 71.4954 861.139 68.7033C872.388 60.9475 882.934 51.6406 899.456 47.2974C882.934 42.9542 872.388 33.337 860.787 25.271C854.46 20.9278 847.429 17.205 840.047 14.1027C831.961 11.0004 824.579 13.4823 820.712 19.9971C816.845 25.8915 818.603 34.5779 824.579 38.9212C827.743 41.403 832.313 41.7132 835.477 39.5416C838.64 37.37 838.992 33.337 836.883 30.2347C835.828 28.6836 834.422 27.4426 833.016 25.5813C847.077 22.4789 851.647 25.8915 854.46 40.4723ZM3135.11 67.7726C3136.51 66.5317 3137.92 65.2908 3138.97 64.0498C3141.08 60.9475 3140.03 56.6043 3136.86 54.4327C3134.05 52.2611 3130.18 52.5713 3126.67 54.7429C3120.69 58.4657 3118.58 67.1521 3122.1 73.667C3125.26 79.8716 3131.59 82.3534 3139.68 80.8023C3143.19 80.1818 3146.71 78.6307 3149.52 77.0795C3154.44 74.2875 3159.36 71.1851 3163.93 68.0828C3175.18 60.3271 3185.02 51.3304 3199.08 47.2974C3185.02 42.9542 3174.83 34.5779 3164.28 26.512C3160.42 23.7199 3156.2 20.9278 3151.98 18.446C3148.82 16.5846 3144.95 15.0334 3141.43 13.7925C3133 11.3106 3126.67 13.172 3122.45 19.3766C3118.23 25.5813 3119.99 34.5779 3125.97 38.9212C3129.13 41.403 3133.7 41.403 3136.86 39.2314C3139.68 37.0598 3140.38 33.337 3138.62 30.2347C3137.57 28.6836 3136.16 27.1324 3134.4 24.9608C3139.68 23.7199 3143.89 23.4096 3148.11 25.271C3154.79 28.3733 3155.14 34.2677 3155.49 40.4723C3159.36 40.4723 3162.88 40.1621 3166.04 40.4723C3169.56 41.0928 3173.07 41.7132 3176.24 43.2644C3180.1 45.1258 3180.1 48.2281 3176.24 50.0895C3173.07 51.6406 3169.56 52.5713 3166.04 53.1918C3162.53 53.8122 3159.01 53.8122 3155.49 54.1225C3154.09 68.0828 3145.65 73.3568 3135.11 67.7726ZM137.675 46.6769C145.409 51.0202 152.791 54.7429 159.471 58.7759C165.095 62.1885 169.665 66.5317 175.29 69.9442C181.266 73.667 187.242 77.3897 193.921 79.8716C202.007 82.9739 209.389 80.8023 213.256 75.5284C217.474 69.634 216.42 60.3271 210.795 55.6736C207.631 52.8815 203.413 52.2611 200.249 54.4327C196.734 56.6043 196.031 60.9475 198.14 64.3601C199.194 65.601 200.249 66.8419 201.655 68.3931C197.788 71.1852 194.273 70.5647 190.054 69.3238C181.969 66.5317 181.617 60.3271 180.914 54.1225C176.696 53.8122 173.181 54.1225 169.314 53.502C161.931 52.5713 157.361 49.469 157.713 46.6769C158.064 43.8849 163.689 41.0928 170.368 40.7826C173.884 40.4723 177.399 40.7826 180.914 40.7826C183.024 26.2017 191.109 20.9278 201.655 26.512C200.249 28.0631 198.491 29.6143 197.788 31.1654C196.382 33.9575 196.734 37.0598 199.897 39.2314C202.71 41.403 206.225 41.403 209.389 39.8519C215.365 36.7496 218.529 27.7529 215.717 21.238C212.553 14.413 205.17 11.0004 197.085 13.4823C190.757 15.6539 184.43 18.7562 178.805 22.1687C164.744 30.8552 153.495 42.0235 137.675 46.6769ZM313.795 46.9872C298.679 42.3337 288.485 34.2677 277.587 26.512C273.369 23.4096 269.15 20.6176 264.58 18.1357C260.713 15.9641 256.143 14.413 251.573 12.8618C247.706 11.3107 243.84 12.5516 240.324 14.413C231.184 19.6869 230.833 33.0268 239.27 38.9212C242.082 40.7826 246.652 41.0928 249.464 39.2314C252.276 37.37 253.331 33.337 251.573 30.545C250.519 28.9938 249.113 27.4426 247.706 25.8915C253.683 23.4096 256.846 23.4096 260.713 25.271C267.393 28.3733 268.096 33.9575 268.096 40.1621C276.884 41.403 287.079 38.3007 292.703 47.2974C286.376 55.3634 276.533 52.8815 268.096 54.7429C268.447 61.568 266.689 66.8419 259.307 69.634C255.44 70.8749 251.925 71.1851 248.761 68.0828C249.816 66.5317 251.222 65.601 251.925 64.3601C254.034 60.6373 252.98 56.2941 249.464 54.4327C245.597 52.2611 241.379 53.1918 238.215 56.6043C236.809 58.4657 235.403 60.3271 234.7 62.4987C232.942 68.0828 233.645 73.3568 238.215 77.7C242.785 82.0432 248.761 82.3534 254.737 80.4921C259.307 79.2511 263.526 77.0795 267.393 74.5977C273.369 70.8749 278.993 66.8419 284.618 62.8089C292.703 56.6043 301.492 50.7099 313.795 46.9872ZM2437.3 46.9872C2450.31 51.0202 2459.8 57.535 2468.94 64.0498C2477.03 69.9442 2486.17 75.2181 2495.31 79.5614C2503.04 82.9739 2510.78 80.4921 2514.64 75.2181C2518.86 69.3238 2517.81 60.0168 2512.18 55.3634C2509.02 52.5713 2504.8 52.2611 2501.64 54.1225C2498.12 56.2941 2497.42 60.6373 2499.53 64.0498C2500.58 65.2908 2501.64 66.5317 2503.04 68.0828C2496.71 70.5647 2495.66 70.5647 2491.44 69.0135C2483.36 66.5317 2483 60.0168 2482.3 53.8122C2478.08 53.502 2474.22 53.8122 2470.7 53.1918C2463.32 52.2611 2458.75 49.1588 2459.1 46.3667C2459.45 43.5746 2465.08 40.7826 2471.75 40.4723C2475.27 40.4723 2478.79 40.4723 2482.3 40.4723C2484.41 25.8915 2492.14 20.6176 2503.04 26.2017C2501.99 27.4426 2500.58 28.3733 2499.88 29.6143C2497.42 33.0268 2498.12 36.7496 2500.93 39.2314C2504.1 41.7132 2509.37 41.403 2512.18 38.3007C2514.29 36.1291 2516.05 33.337 2517.1 30.545C2519.21 24.9608 2517.1 20.3073 2512.53 16.2743C2508.31 12.2413 2502.69 11.0004 2497.07 13.4823C2491.09 15.9641 2485.11 18.7562 2479.49 22.1687C2466.48 30.8552 2455.23 42.0235 2437.3 46.9872ZM2614.13 47.6076C2607.45 44.1951 2601.12 41.403 2595.5 37.9905C2589.87 34.5779 2584.6 30.2347 2578.97 26.512C2574.75 23.7199 2570.54 20.6176 2565.97 18.1357C2562.1 16.2743 2557.88 14.7232 2553.66 13.172C2549.44 11.6209 2545.23 12.8618 2541.71 15.0334C2533.27 20.3073 2532.92 33.337 2541.36 39.2314C2544.17 41.403 2548.74 41.403 2551.55 39.5416C2554.72 37.37 2555.07 34.5779 2554.01 31.4756C2553.31 29.6143 2551.55 27.7529 2550.5 25.8915C2562.8 21.8585 2568.08 25.8915 2570.89 40.4723C2578.97 41.403 2589.17 38.6109 2594.79 47.2974C2588.82 55.3634 2578.62 53.1918 2570.54 54.7429C2568.78 68.7033 2561.75 73.3568 2549.8 68.3931C2550.85 67.1522 2551.91 66.2215 2552.96 64.9805C2555.42 61.568 2555.07 56.9145 2551.91 54.7429C2548.39 52.2611 2543.12 52.5713 2539.95 56.2941C2537.84 58.7759 2536.44 61.568 2535.73 64.3601C2533.27 76.1488 2543.82 84.2148 2556.83 80.4921C2561.05 79.2511 2564.91 77.0795 2568.78 74.9079C2574.76 71.1852 2580.38 67.1521 2586 63.1192C2594.09 56.6043 2602.88 50.7099 2614.13 47.6076ZM786.613 25.5813C784.855 28.0631 783.449 29.9245 782.746 31.7859C781.691 34.8882 782.043 38.3007 785.558 39.5416C788.019 40.4723 791.886 40.7825 794.347 39.5416C800.674 37.0598 803.135 27.4426 800.323 20.9278C797.159 14.1027 789.777 10.6902 782.043 13.4823C776.067 15.3437 770.442 18.1357 765.169 21.5483C751.108 30.2347 739.507 41.7132 721.579 46.9872C734.234 50.3997 743.022 56.6043 751.459 62.8089C756.732 66.8419 762.357 70.5647 767.981 74.2874C771.848 76.7693 776.067 78.9409 780.637 80.1818C789.074 82.6637 796.456 80.1818 799.971 73.667C803.135 68.0828 801.378 60.0168 796.807 55.6736C793.292 52.5713 789.074 51.9509 785.558 54.4327C782.746 56.2941 781.691 60.6373 783.801 64.0498C784.855 65.601 786.261 66.8419 787.316 68.3931C782.746 71.1852 778.879 70.8749 774.661 69.0135C767.981 65.9112 766.927 60.3271 766.927 54.4327C758.138 52.8815 747.944 55.3634 742.319 46.6769C745.132 42.9542 748.998 41.403 753.568 40.7826C757.787 40.1621 762.357 40.4723 766.575 40.1621C767.63 26.2017 773.255 22.1687 786.613 25.5813ZM1955.54 25.5813C1967.85 21.8585 1974.52 26.8222 1975.23 40.1621C1983.31 41.403 1993.51 38.3007 1999.13 46.9872C1993.16 55.3634 1982.96 52.5713 1974.88 54.4327C1974.52 67.1521 1965.74 73.3568 1954.84 68.0828C1955.89 66.8419 1956.95 65.9112 1957.65 64.6703C1959.76 60.9475 1959.06 56.6043 1955.89 54.7429C1952.03 52.5713 1948.51 52.8815 1944.64 56.6043C1939.02 61.8782 1938.32 69.634 1942.53 75.8386C1946.4 81.4228 1953.43 83.5944 1961.87 80.1818C1967.84 77.7 1973.82 74.5977 1979.09 71.1851C1991.75 63.1191 2002.65 52.2611 2020.22 47.6076C2004.4 42.9542 1994.21 33.9575 1982.61 26.2017C1975.58 21.5483 1968.2 17.5153 1960.46 14.413C1952.38 11.3107 1945 14.1027 1941.48 20.9278C1937.96 27.1324 1940.07 36.1291 1946.05 39.8519C1949.21 41.7132 1952.73 42.3337 1955.54 40.1621C1957.3 38.9212 1958.71 36.1291 1958.71 33.9575C1958.71 31.1654 1956.6 28.6836 1955.54 25.5813ZM1589.94 46.9872C1600.84 50.7099 1609.63 56.9145 1618.42 63.1192C1623.69 67.1521 1629.31 70.8749 1634.94 74.5977C1638.81 77.0795 1643.02 79.2511 1647.59 80.4921C1659.55 83.9046 1670.44 75.2181 1667.98 64.0498C1667.28 61.2578 1665.52 58.4657 1663.41 56.2941C1660.6 52.8815 1656.38 52.2611 1653.22 53.8122C1649.7 55.6736 1648.3 59.7066 1650.06 63.7396C1650.76 65.2908 1652.16 66.8419 1653.22 68.3931C1649 71.8056 1645.49 70.5647 1641.62 69.3238C1634.24 66.5317 1633.18 60.6373 1632.48 54.7429C1623.69 53.8122 1614.2 55.3634 1608.93 47.2974C1615.25 38.9212 1624.74 42.0235 1632.83 40.7826C1633.53 27.1324 1641.62 21.5483 1652.52 26.512C1651.46 28.3733 1649.7 30.2347 1649 32.4063C1647.95 35.8189 1649.7 39.5416 1652.52 40.7826C1655.68 42.0235 1659.2 41.7132 1662.01 39.5416C1667.98 34.5779 1669.74 25.8915 1665.17 19.6869C1660.95 13.7925 1653.57 11.3106 1645.49 14.7232C1638.1 18.1357 1631.07 22.1687 1624.39 26.512C1613.85 33.337 1604 42.3337 1589.94 46.9872ZM2970.59 46.6769C2975.16 51.0202 2980.08 55.9838 2984.65 60.3271C2989.57 55.6736 2994.49 51.0202 2998.71 46.6769C2994.14 42.3337 2989.22 37.6802 2984.65 33.337C2980.08 37.9905 2975.16 42.3337 2970.59 46.6769ZM1563.58 47.2974C1558.66 43.2644 1553.38 38.9212 1548.46 34.8882C1544.95 38.3007 1540.02 42.6439 1535.81 46.6769C1540.73 51.3304 1545.65 55.9838 1549.87 60.3271C1555.14 55.9838 1559.71 51.3304 1563.58 47.2974ZM682.909 33.6473C677.988 38.3007 673.066 42.9542 668.848 46.9872C673.418 51.6406 678.339 55.9839 682.909 60.6373C687.479 55.9839 692.401 51.3304 696.971 46.9872C692.753 42.6439 687.831 38.3007 682.909 33.6473ZM351.41 33.337C349.652 35.1984 347.543 37.6803 345.434 39.8519C342.621 42.3337 339.809 44.5053 337.348 46.3667C342.27 51.3304 347.191 55.9838 351.761 60.3271C356.331 55.6736 361.253 51.0202 365.823 46.6769C361.605 42.9542 356.683 38.6109 351.41 33.337ZM951.132 46.9872C946.562 42.6439 941.641 37.6802 937.071 33.337C932.149 37.9905 927.228 42.6439 922.658 46.9872C927.579 51.3304 932.149 55.9838 936.719 60.3271C941.641 55.9838 946.562 51.3304 951.132 46.9872ZM2653.5 61.2578C2656.31 58.1555 2658.07 55.3634 2660.53 52.8815C2662.99 50.3997 2665.8 48.5383 2667.91 46.9872C2662.64 42.0235 2658.07 37.6803 2653.5 33.6473C2648.58 38.3007 2643.66 42.9542 2639.09 47.2974C2641.55 49.1588 2644.36 51.0202 2646.82 53.1918C2648.93 55.6736 2650.69 58.4657 2653.5 61.2578ZM1804.03 33.337C1799.46 37.6802 1794.19 42.6439 1789.97 46.6769C1794.89 51.3304 1799.81 55.9838 1804.03 60.3271C1808.6 55.9838 1813.52 51.3304 1818.09 46.9872C1813.87 42.6439 1808.95 37.9905 1804.03 33.337ZM2399.34 60.6373C2403.91 55.9839 2408.83 51.3304 2413.4 47.2974C2408.48 42.6439 2403.91 37.9905 2399.34 33.6473C2394.42 38.3007 2389.5 42.9542 2385.28 47.6076C2389.85 51.6406 2394.77 55.9839 2399.34 60.6373ZM2072.25 46.9872C2067.68 42.6439 2062.76 37.9905 2058.19 33.9575C2053.27 38.6109 2048.35 42.9542 2043.78 47.6076C2046.24 49.469 2049.4 51.3304 2051.51 53.8122C2053.97 56.2941 2056.08 59.0861 2057.84 61.2578C2063.11 55.9838 2067.68 51.3304 2072.25 46.9872ZM3104.17 46.6769C3106.63 49.469 3109.09 52.2611 3111.55 54.7429C3114.36 51.9509 3116.47 49.1588 3119.29 46.3667C3116.47 43.5746 3114.36 41.403 3111.55 38.9212C3109.09 41.7133 3106.63 44.1951 3104.17 46.6769ZM2526.24 38.9212C2523.78 42.0235 2521.67 44.5053 2519.21 46.9872C2521.67 49.7792 2523.78 52.2611 2526.24 55.0532C2529.06 51.9508 2531.16 49.469 2533.63 46.6769C2531.16 44.1951 2529.06 41.7133 2526.24 38.9212ZM1677.12 55.0532C1679.94 52.2611 1682.05 49.7792 1684.51 47.2974C1682.05 44.5053 1679.94 42.0235 1677.48 38.9212C1674.66 42.0235 1672.55 44.1951 1670.09 46.9872C1672.2 49.469 1674.31 51.9508 1677.12 55.0532ZM810.166 55.3634C812.627 52.5713 814.736 50.0895 817.197 47.2974C815.087 44.8155 812.978 42.0235 810.166 39.2314C807.354 42.3337 804.893 44.8155 802.432 47.2974C805.244 50.0895 807.705 52.5713 810.166 55.3634ZM1931.29 55.0532C1934.1 51.9508 1936.21 49.469 1938.32 46.6769C1935.86 43.8849 1933.39 41.7133 1930.93 38.9212C1928.47 42.0235 1926.36 44.5053 1923.9 47.2974C1926.36 49.7792 1928.47 51.9508 1931.29 55.0532ZM224.857 55.3634C227.669 52.2611 229.778 49.469 232.239 46.6769C229.427 43.8849 227.317 41.7132 224.505 39.2314C222.044 42.3337 219.935 44.8155 217.826 47.2974C220.287 50.0895 222.396 52.2611 224.857 55.3634Z" fill="white"/>
</svg>
