<svg width="26" height="26" viewBox="0 0 26 26" fill="none" xmlns="http://www.w3.org/2000/svg">
<circle cx="13" cy="13" r="12.5" fill="#427EB2" stroke="#1B578B"/>
<path d="M19.232 8H6.15259C5.50113 8 5 8.49505 5 9.13861V16.8614C5 17.4554 5.50113 18 6.15259 18H19.232C19.8334 18 20.3846 17.5049 20.3846 16.8614V9.13861C20.3345 8.49505 19.8334 8 19.232 8ZM19.4325 9.28713L12.8176 12.901C12.7675 12.901 12.7174 12.9505 12.6673 12.9505H12.6171C12.567 12.9505 12.5169 12.9505 12.4668 12.901L5.90203 9.28713C5.8018 9.23762 5.75169 9.0396 5.8018 8.94059C5.85192 8.79208 6.05237 8.79208 6.15259 8.84158L12.6673 12.4059L19.1819 8.84158C19.3322 8.79208 19.4826 8.84158 19.5327 8.94059C19.6329 9.0396 19.5828 9.23762 19.4325 9.28713Z" fill="white"/>
</svg>
