<svg width="18" height="19" viewBox="0 0 18 19" fill="none" xmlns="http://www.w3.org/2000/svg">
<circle cx="9" cy="9" r="8.75" fill="#FFEFD4" stroke="black" stroke-width="0.5"/>
<path d="M9.35227 12.3636V11.9034C9.35227 11.5852 9.41761 11.294 9.5483 11.0298C9.68182 10.7628 9.875 10.5497 10.1278 10.3906C10.3835 10.2287 10.6932 10.1477 11.0568 10.1477C11.4261 10.1477 11.7358 10.2287 11.9858 10.3906C12.2358 10.5497 12.4247 10.7628 12.5526 11.0298C12.6804 11.294 12.7443 11.5852 12.7443 11.9034V12.3636C12.7443 12.6818 12.679 12.9744 12.5483 13.2415C12.4205 13.5057 12.2301 13.7187 11.9773 13.8807C11.7273 14.0398 11.4205 14.1193 11.0568 14.1193C10.6875 14.1193 10.3764 14.0398 10.1236 13.8807C9.87074 13.7187 9.67898 13.5057 9.5483 13.2415C9.41761 12.9744 9.35227 12.6818 9.35227 12.3636ZM10.2216 11.9034V12.3636C10.2216 12.6278 10.2841 12.8651 10.4091 13.0753C10.5341 13.2827 10.75 13.3864 11.0568 13.3864C11.3551 13.3864 11.5653 13.2827 11.6875 13.0753C11.8125 12.8651 11.875 12.6278 11.875 12.3636V11.9034C11.875 11.6392 11.8153 11.4034 11.696 11.196C11.5767 10.9858 11.3636 10.8807 11.0568 10.8807C10.7585 10.8807 10.544 10.9858 10.4134 11.196C10.2855 11.4034 10.2216 11.6392 10.2216 11.9034ZM5.00568 7.36932V6.90909C5.00568 6.59091 5.07102 6.29972 5.2017 6.03551C5.33523 5.76847 5.52841 5.5554 5.78125 5.39631C6.03693 5.23437 6.34659 5.15341 6.71023 5.15341C7.07955 5.15341 7.3892 5.23437 7.6392 5.39631C7.8892 5.5554 8.07813 5.76847 8.20597 6.03551C8.33381 6.29972 8.39773 6.59091 8.39773 6.90909V7.36932C8.39773 7.6875 8.33239 7.98011 8.2017 8.24716C8.07386 8.51136 7.88352 8.72443 7.63068 8.88636C7.38068 9.04545 7.07386 9.125 6.71023 9.125C6.34091 9.125 6.02983 9.04545 5.77699 8.88636C5.52415 8.72443 5.33239 8.51136 5.2017 8.24716C5.07102 7.98011 5.00568 7.6875 5.00568 7.36932ZM5.875 6.90909V7.36932C5.875 7.63352 5.9375 7.87074 6.0625 8.08097C6.1875 8.28835 6.40341 8.39205 6.71023 8.39205C7.00852 8.39205 7.21875 8.28835 7.34091 8.08097C7.46591 7.87074 7.52841 7.63352 7.52841 7.36932V6.90909C7.52841 6.64489 7.46875 6.40909 7.34943 6.2017C7.23011 5.99148 7.01705 5.88636 6.71023 5.88636C6.41193 5.88636 6.19744 5.99148 6.06676 6.2017C5.93892 6.40909 5.875 6.64489 5.875 6.90909ZM5.32955 14L11.3295 5.27273H12.3011L6.30114 14H5.32955Z" fill="black"/>
</svg>
