<svg width="26" height="26" viewBox="0 0 26 26" fill="none" xmlns="http://www.w3.org/2000/svg">
<circle cx="13" cy="13" r="12.5" fill="#427EB2" stroke="#1B578B"/>
<path fill-rule="evenodd" clip-rule="evenodd" d="M12.3824 20.4758C12.7393 20.7867 13.2607 20.7867 13.6176 20.4758C15.3278 18.9861 20 14.6419 20 11.6441C20 7.97464 16.8659 5 13 5C9.13407 5 6 7.97464 6 11.6441C6 14.6419 10.6722 18.9861 12.3824 20.4758ZM13 13.4068C14.3412 13.4068 15.4286 12.3747 15.4286 11.1017C15.4286 9.82866 14.3412 8.79661 13 8.79661C11.6588 8.79661 10.5714 9.82866 10.5714 11.1017C10.5714 12.3747 11.6588 13.4068 13 13.4068Z" fill="white"/>
</svg>
