<svg width="146" height="44" viewBox="0 0 146 44" fill="none" xmlns="http://www.w3.org/2000/svg">
<path d="M64.799 13.1541L62.277 15.7548V20.4519H57.9575V1.87582H62.277V10.5535L70.5941 1.87582H75.4234L67.6429 10.1554L75.8795 20.4519H70.8087L64.799 13.1541Z" fill="url(#paint0_linear_633_2377)"/>
<path d="M93.0297 16.949V20.4519H76.6102V17.6655L86.9126 5.37874H76.8248V1.87582H92.6272V4.66223L82.3516 16.949H93.0297Z" fill="url(#paint1_linear_633_2377)"/>
<path d="M117.286 20.4519L117.259 9.30625L111.732 18.4881H109.774L104.274 9.54508V20.4519H100.196V1.87582H103.791L110.82 13.4195L117.742 1.87582H121.31L121.364 20.4519H117.286Z" fill="url(#paint2_linear_633_2377)"/>
<path d="M134.915 20.7703C132.965 20.7703 131.204 20.3546 129.63 19.5231C128.074 18.6916 126.848 17.5505 125.954 16.0998C125.078 14.6314 124.639 12.9861 124.639 11.1639C124.639 9.34163 125.078 7.70517 125.954 6.25446C126.848 4.78607 128.074 3.63612 129.63 2.80462C131.204 1.97312 132.965 1.55737 134.915 1.55737C136.865 1.55737 138.617 1.97312 140.174 2.80462C141.73 3.63612 142.955 4.78607 143.849 6.25446C144.743 7.70517 145.191 9.34163 145.191 11.1639C145.191 12.9861 144.743 14.6314 143.849 16.0998C142.955 17.5505 141.73 18.6916 140.174 19.5231C138.617 20.3546 136.865 20.7703 134.915 20.7703ZM134.915 17.1082C136.024 17.1082 137.026 16.8605 137.92 16.3652C138.814 15.8521 139.512 15.1444 140.013 14.2422C140.531 13.3399 140.791 12.3138 140.791 11.1639C140.791 10.0139 140.531 8.9878 140.013 8.08553C139.512 7.18327 138.814 6.48445 137.92 5.98909C137.026 5.47604 136.024 5.21951 134.915 5.21951C133.806 5.21951 132.804 5.47604 131.91 5.98909C131.016 6.48445 130.309 7.18327 129.791 8.08553C129.29 8.9878 129.039 10.0139 129.039 11.1639C129.039 12.3138 129.29 13.3399 129.791 14.2422C130.309 15.1444 131.016 15.8521 131.91 16.3652C132.804 16.8605 133.806 17.1082 134.915 17.1082Z" fill="url(#paint3_linear_633_2377)"/>
<path d="M75.1819 24.7943V43.3704H71.6136L62.2502 32.0921V43.3704H57.9575V24.7943H61.5526L70.8892 36.0727V24.7943H75.1819Z" fill="url(#paint4_linear_633_2377)"/>
<path d="M94.1668 39.9206V43.3704H79.6253V24.7943H93.818V28.2442H83.9448V32.2778H92.6643V35.6215H83.9448V39.9206H94.1668Z" fill="url(#paint5_linear_633_2377)"/>
<path d="M106.456 36.7892V43.3704H102.11V36.7361L94.8392 24.7943H99.4538L104.471 33.0474L109.488 24.7943H113.754L106.456 36.7892Z" fill="url(#paint6_linear_633_2377)"/>
<path d="M33.2173 20.1525C32.3172 19.8473 31.5218 19.6845 30.7054 19.6845C29.0727 19.6642 27.6074 20.1118 26.3515 21.17C25.7235 21.699 25.7235 22.1467 26.3515 22.6554C27.8377 23.856 29.5541 24.3037 31.459 24.0595C32.0242 23.9984 32.5684 23.8356 33.1545 23.7135C33.0917 23.856 33.0289 23.9781 32.9661 24.1002C31.7939 26.3589 32.4847 29.3094 34.5779 30.7542C35.7083 31.5274 36.9851 31.9141 38.3666 31.6292C39.183 31.4664 39.8947 31.0594 40.4389 30.4286C41.0251 29.7571 41.2762 28.9839 41.046 28.1089C40.732 26.9286 39.2877 26.7252 38.576 27.1321C38.2829 27.2949 38.1155 27.5391 37.9899 27.8443C37.7178 28.4751 37.0479 28.6176 36.5455 28.1496C36.106 27.7629 36.0432 27.2339 36.085 26.7048C36.1897 25.0159 37.7596 23.7135 39.497 23.6322C41.9042 23.5101 44.8975 25.5042 44.8766 28.6379C44.8766 29.7368 44.6673 30.8152 44.2068 31.8123C43.4323 33.5013 42.1135 34.5594 40.2924 35.0274C40.125 35.0681 39.9366 35.1088 39.6645 35.1699C39.8738 35.292 40.0203 35.353 40.1668 35.4344C42.2391 36.5536 43.6207 38.1815 44.2068 40.4198C44.3533 40.9489 44.3742 41.5187 44.3951 42.0681C44.4161 42.5971 44.0812 42.9024 43.516 42.9227C42.3228 42.9634 41.2344 42.6582 40.1878 42.1291C38.6597 41.3559 37.4875 40.2163 36.6921 38.7309C36.6293 38.6291 36.5665 38.5071 36.4618 38.3443C36.399 38.4867 36.3571 38.5681 36.3362 38.6698C35.7082 41.2338 33.9709 42.6582 31.3962 43.2076C30.517 43.3907 29.6379 43.4314 28.7587 43.2687C26.6655 42.9024 24.8653 41.0303 24.6141 38.9547C24.4257 37.4896 24.8862 36.2483 26.1422 35.353C26.812 34.885 27.5865 34.7425 28.3819 34.8443C28.8843 34.9053 29.303 35.1699 29.4495 35.6786C29.5751 36.1059 29.4076 36.4925 28.989 36.6146C28.1936 36.8792 27.8796 37.4896 28.0261 38.3646C28.1517 39.1175 28.7378 39.6262 29.5332 39.6873C30.5589 39.7687 31.3543 39.3617 31.9823 38.6088C32.7568 37.6931 33.0289 36.6146 32.7987 35.4547C32.2963 32.8094 30.0147 31.1001 27.2516 31.2222C26.3306 31.2629 25.4724 31.5071 24.5932 31.9955C24.656 31.7716 24.6979 31.6292 24.7397 31.4867C25.3677 29.3094 25.0746 27.3153 23.6512 25.4839C23.0861 24.7717 22.5 24.6903 21.872 25.4839C20.7417 26.8879 20.3021 28.4751 20.5114 30.2455C20.5742 30.7338 20.7207 31.2019 20.8254 31.6699C20.8463 31.7513 20.8672 31.853 20.8882 31.9955C20.6789 31.8937 20.5323 31.8327 20.3858 31.7513C18.2088 30.7135 14.9643 31.2019 13.4572 33.5623C12.7874 34.6001 12.4315 35.7396 12.7036 36.9606C12.9967 38.2425 13.6875 39.2396 15.069 39.6059C15.4039 39.6873 15.7807 39.7076 16.1156 39.6669C17.246 39.5041 17.8739 38.2832 17.3506 37.2658C17.1832 36.9606 16.932 36.7774 16.618 36.635C15.9482 36.3501 15.8016 35.7193 16.3249 35.1902C16.5971 34.9257 16.932 34.8036 17.3088 34.7832C19.2136 34.6001 20.5323 36.1059 20.8254 37.3879C20.9719 37.978 20.951 38.5884 20.8463 39.1786C20.4486 41.1524 18.774 42.882 16.7645 43.2076C14.2945 43.6146 11.4477 42.7396 10.0452 40.6233C9.66847 40.0536 9.39634 39.4431 9.22888 38.7919C9.18702 38.6291 9.14516 38.4867 9.08236 38.2425C8.95677 38.446 8.89397 38.5681 8.81024 38.7105C7.6171 40.7861 5.85879 42.1698 3.45157 42.6989C3.01199 42.8006 2.55148 42.821 2.1119 42.8413C1.463 42.8413 1.16995 42.5768 1.12809 41.9256C1.10715 41.2338 1.21182 40.5623 1.44207 39.9111C2.13284 37.8966 3.4725 36.3908 5.39827 35.353C5.5448 35.2716 5.69132 35.2106 5.87971 35.1088C5.50293 35.0071 5.16802 34.946 4.87497 34.8443C2.71894 34.1321 1.463 32.6263 0.918764 30.5304C0.688508 29.6147 0.604775 28.699 0.751301 27.7629C1.08622 25.7077 2.8864 23.9984 5.04242 23.6322C6.63328 23.3676 7.95201 23.8153 8.93583 25.0973C9.43821 25.7484 9.5638 26.481 9.43821 27.2746C9.37541 27.7019 9.16609 28.0478 8.74744 28.231C8.266 28.4548 7.76362 28.3124 7.59617 27.824C7.30311 26.9897 6.46582 26.7659 5.87971 26.8676C5.00056 27.01 4.49818 27.5391 4.41445 28.3734C4.33072 29.3501 4.72844 30.1234 5.482 30.7338C6.52862 31.5478 7.70083 31.8327 9.01956 31.5071C11.3012 30.9577 12.8083 29.3094 13.0804 27.0304C13.206 25.9112 13.0176 24.8531 12.4734 23.8763C12.4525 23.8153 12.4106 23.7542 12.3897 23.6932C12.3897 23.6728 12.3897 23.6525 12.3897 23.6118C12.599 23.6728 12.8083 23.7135 13.0176 23.7746C14.7341 24.2426 16.4087 24.1205 17.9995 23.3269C18.4391 23.1031 18.8577 22.8182 19.2345 22.4926C19.7997 22.045 19.7788 21.5566 19.2345 21.0886C18.2088 20.2136 16.9948 19.7252 15.6551 19.6031C14.6504 19.5014 13.6456 19.6235 12.6827 19.9287C12.599 19.949 12.5362 19.9694 12.3687 20.0304C12.4525 19.8676 12.4943 19.7659 12.5362 19.6642C13.4991 17.67 13.3526 15.7369 12.0129 13.9462C10.9244 12.5014 9.35448 11.8909 7.53337 12.013C6.13091 12.0944 4.79124 13.1729 4.49819 14.4142C4.43539 14.6991 4.39352 15.0246 4.43539 15.3299C4.58191 16.4287 5.71226 17.0392 6.75887 16.6525C7.13566 16.5101 7.38685 16.2456 7.53337 15.8793C7.80549 15.2281 8.47532 15.0857 9.01956 15.5741C9.31261 15.8386 9.41727 16.1642 9.43821 16.5305C9.60566 18.3822 8.09854 19.6031 6.9054 19.9083C5.94252 20.1525 5.00056 20.0915 4.10047 19.7252C2.32122 19.013 1.02342 17.8124 0.751301 15.8996C0.416385 13.3968 1.08622 11.1787 3.24225 9.5712C3.89115 9.08283 4.66564 8.79795 5.482 8.61481C5.56573 8.59446 5.6704 8.55376 5.83785 8.51306C5.62853 8.39097 5.48201 8.30958 5.33548 8.24853C3.17945 7.06831 1.77699 5.33867 1.23275 2.97822C1.12809 2.53054 1.10715 2.08287 1.12809 1.61485C1.14902 1.06544 1.463 0.821254 2.04911 0.800905C3.5353 0.760208 4.87497 1.22823 6.10997 2.02183C7.28218 2.77473 8.2032 3.77182 8.87304 5.01309C8.93583 5.13518 8.99863 5.23692 9.10329 5.37936C9.20796 5.05378 9.27075 4.7689 9.35448 4.48402C10.108 2.26601 11.7408 1.02474 14.0433 0.516023C15.0271 0.292187 16.0319 0.210792 17.0366 0.475326C19.1927 1.06544 20.4695 2.48985 20.9091 4.58576C21.244 6.13227 20.7207 7.41423 19.402 8.35027C18.6903 8.83864 17.8739 9.02178 17.0157 8.79795C16.7645 8.7369 16.4924 8.55376 16.3249 8.37062C15.8854 7.88225 16.0528 7.29214 16.6598 7.04796C17.2669 6.80377 17.5809 6.3561 17.5809 5.72529C17.5809 5.03344 17.3506 4.44332 16.6389 4.13809C15.99 3.85321 15.3202 3.91426 14.6922 4.19914C13.5828 4.70786 12.9967 5.6032 12.7455 6.72238C12.3269 8.63516 13.4781 10.8328 15.3621 11.7892C17.0994 12.6642 18.8577 12.6845 20.6161 11.8299C20.6998 11.7892 20.7626 11.7485 20.8463 11.7282C20.8672 11.7282 20.8882 11.7282 20.9091 11.7282C20.7835 12.3183 20.6161 12.888 20.5533 13.4781C20.3439 15.2892 20.8044 16.9374 22.0395 18.3415C22.5628 18.9316 23.0233 18.9316 23.5466 18.3415C24.7188 17.0188 25.2002 15.452 25.0537 13.7223C24.9909 13.0508 24.8235 12.3997 24.6979 11.7078C24.8235 11.7689 24.97 11.8503 25.1165 11.9113C27.0841 12.8677 29.6588 12.5218 31.2497 11.0567C32.4847 9.93747 33.0289 8.53341 32.8615 6.92587C32.7568 5.86773 32.1916 4.99274 31.2706 4.38228C30.6636 3.99565 29.9937 3.85321 29.2611 4.016C28.1936 4.26019 27.6702 5.58285 28.2354 6.47819C28.4029 6.76308 28.675 6.90552 28.989 7.02761C29.4914 7.2311 29.6588 7.65842 29.4495 8.12644C29.282 8.47237 28.989 8.6962 28.6122 8.7776C27.7958 8.98108 27.0004 8.83864 26.3096 8.39097C24.949 7.51598 24.4676 6.25436 24.656 4.72821C24.9072 2.75438 26.5399 0.963694 28.5075 0.475326C31.6055 -0.297925 35.1012 1.43171 36.1478 4.23984C36.2734 4.58576 36.3571 4.95204 36.5037 5.37936C36.6083 5.17588 36.6921 5.05378 36.7758 4.91134C38.0317 2.73403 39.8947 1.35032 42.4484 0.861951C42.8252 0.800905 43.2229 0.800905 43.5997 0.800905C44.144 0.800905 44.4161 1.08579 44.4579 1.61485C44.4998 2.4288 44.3533 3.20205 44.0602 3.95495C43.3485 5.80669 42.0926 7.23109 40.3134 8.18748C40.1459 8.26888 39.9994 8.35027 39.7691 8.47237C39.8947 8.53341 39.9784 8.57411 40.0622 8.59446C43.1392 9.28631 44.458 11.5247 44.8347 13.763C44.9394 14.4345 44.9813 15.1264 44.8766 15.7979C44.4789 18.3822 41.7786 20.356 39.1202 19.9897C37.7177 19.8066 36.2316 18.6264 36.1478 16.9374C36.1269 16.6118 36.1897 16.2863 36.2943 15.981C36.399 15.6351 36.6711 15.4113 37.027 15.2892C37.4875 15.1467 37.8433 15.3095 38.0317 15.7572C38.3666 16.4898 38.8062 16.7543 39.6435 16.6932C40.418 16.6322 40.9413 16.2456 41.1297 15.513C41.4018 14.3938 40.9623 13.4985 40.0831 12.8066C39.0156 11.952 37.7805 11.7689 36.4409 12.1148C33.7825 12.8066 32.1288 15.2892 32.5475 17.9345C32.5475 18.7688 32.7987 19.4403 33.2173 20.1525Z" fill="url(#paint7_linear_633_2377)"/>
<path d="M94.4136 16.7625H98.3195V20.5636H94.4136V16.7625Z" fill="url(#paint8_linear_633_2377)"/>
<defs>
<linearGradient id="paint0_linear_633_2377" x1="139.877" y1="-0.0541614" x2="157.951" y2="53.0582" gradientUnits="userSpaceOnUse">
<stop stop-color="#296599"/>
<stop offset="0.591667" stop-color="#47B2FF"/>
<stop offset="1" stop-color="#4F99D9"/>
</linearGradient>
<linearGradient id="paint1_linear_633_2377" x1="139.877" y1="-0.0541614" x2="157.951" y2="53.0582" gradientUnits="userSpaceOnUse">
<stop stop-color="#296599"/>
<stop offset="0.591667" stop-color="#47B2FF"/>
<stop offset="1" stop-color="#4F99D9"/>
</linearGradient>
<linearGradient id="paint2_linear_633_2377" x1="139.877" y1="-0.0541614" x2="157.951" y2="53.0582" gradientUnits="userSpaceOnUse">
<stop stop-color="#296599"/>
<stop offset="0.591667" stop-color="#47B2FF"/>
<stop offset="1" stop-color="#4F99D9"/>
</linearGradient>
<linearGradient id="paint3_linear_633_2377" x1="139.877" y1="-0.0541614" x2="157.951" y2="53.0582" gradientUnits="userSpaceOnUse">
<stop stop-color="#296599"/>
<stop offset="0.591667" stop-color="#47B2FF"/>
<stop offset="1" stop-color="#4F99D9"/>
</linearGradient>
<linearGradient id="paint4_linear_633_2377" x1="139.877" y1="-0.0541614" x2="157.951" y2="53.0582" gradientUnits="userSpaceOnUse">
<stop stop-color="#296599"/>
<stop offset="0.591667" stop-color="#47B2FF"/>
<stop offset="1" stop-color="#4F99D9"/>
</linearGradient>
<linearGradient id="paint5_linear_633_2377" x1="139.877" y1="-0.0541614" x2="157.951" y2="53.0582" gradientUnits="userSpaceOnUse">
<stop stop-color="#296599"/>
<stop offset="0.591667" stop-color="#47B2FF"/>
<stop offset="1" stop-color="#4F99D9"/>
</linearGradient>
<linearGradient id="paint6_linear_633_2377" x1="139.877" y1="-0.0541614" x2="157.951" y2="53.0582" gradientUnits="userSpaceOnUse">
<stop stop-color="#296599"/>
<stop offset="0.591667" stop-color="#47B2FF"/>
<stop offset="1" stop-color="#4F99D9"/>
</linearGradient>
<linearGradient id="paint7_linear_633_2377" x1="22.8034" y1="0.290529" x2="46.8264" y2="23.1672" gradientUnits="userSpaceOnUse">
<stop stop-color="#296599"/>
<stop offset="0.591667" stop-color="#3F9BDE"/>
<stop offset="1" stop-color="#4F99D9"/>
</linearGradient>
<linearGradient id="paint8_linear_633_2377" x1="96.3666" y1="16.7625" x2="98.4862" y2="18.781" gradientUnits="userSpaceOnUse">
<stop stop-color="#296599"/>
<stop offset="0.591667" stop-color="#3F9BDE"/>
<stop offset="1" stop-color="#4F99D9"/>
</linearGradient>
</defs>
</svg>
