<svg width="67" height="15" viewBox="0 0 67 15" fill="none" xmlns="http://www.w3.org/2000/svg">
<path d="M59.5245 4.08156C59.6741 3.6209 60.3259 3.6209 60.4755 4.08156L60.8716 5.30041C61.0724 5.91844 61.6483 6.33688 62.2981 6.33688H63.5797C64.0641 6.33688 64.2655 6.95669 63.8736 7.24139L62.8368 7.99468C62.3111 8.37665 62.0911 9.0537 62.2919 9.67173L62.6879 10.8906C62.8376 11.3512 62.3103 11.7343 61.9185 11.4496L60.8817 10.6963C60.3559 10.3143 59.6441 10.3143 59.1183 10.6963L58.0815 11.4496C57.6897 11.7343 57.1624 11.3512 57.3121 10.8906L57.7081 9.67173C57.9089 9.05369 57.6889 8.37664 57.1632 7.99468L56.1264 7.24139C55.7345 6.95669 55.9359 6.33688 56.4203 6.33688H57.7019C58.3517 6.33688 58.9276 5.91844 59.1284 5.30041L59.5245 4.08156Z" stroke="#F9A354"/>
<path fill-rule="evenodd" clip-rule="evenodd" d="M47.831 3.80333C47.4992 2.93634 46.2413 2.95433 45.9479 3.85729L45.5441 5.10024C45.4102 5.51226 45.0262 5.79122 44.593 5.79122H43.2861C42.3174 5.79122 41.9146 7.03084 42.6983 7.60024L43.7556 8.36843C44.1061 8.62307 44.2528 9.07444 44.1189 9.48646L43.715 10.7294C43.4157 11.6507 44.4702 12.4168 45.2539 11.8474L46.3112 11.0793C46.5737 10.8885 46.9059 10.8407 47.2034 10.9357C47.5352 9.26058 47.6746 6.68733 47.8 4.37211C47.8104 4.18053 47.8207 3.99072 47.831 3.80333Z" fill="#FFBA52"/>
<path d="M46.4236 4.01179C46.5733 3.55114 47.225 3.55114 47.3747 4.0118L47.7785 5.25475C47.9793 5.87278 48.5553 6.29122 49.2051 6.29122H50.512C50.9964 6.29122 51.1978 6.91103 50.8059 7.19573L49.7486 7.96392C49.2229 8.34588 49.0029 9.02293 49.2037 9.64097L49.6076 10.8839C49.7572 11.3446 49.23 11.7276 48.8381 11.4429L47.7808 10.6747C47.2551 10.2928 46.5432 10.2928 46.0175 10.6747L44.9601 11.4429C44.5683 11.7276 44.041 11.3446 44.1907 10.8839L44.5946 9.64097C44.7954 9.02293 44.5754 8.34588 44.0497 7.96392L42.9924 7.19573C42.6005 6.91103 42.8019 6.29122 43.2863 6.29122H44.5932C45.243 6.29122 45.8189 5.87278 46.0198 5.25475L46.4236 4.01179Z" stroke="#F9A354"/>
<path d="M33.0278 3.87721C33.1836 3.42972 33.8164 3.42972 33.9722 3.8772L34.478 5.33004C34.6878 5.93289 35.2563 6.33688 35.8946 6.33688H37.3765C37.8691 6.33688 38.0648 6.9742 37.6571 7.25071L36.5796 7.98135C36.0173 8.36266 35.7815 9.07434 36.0049 9.71599L36.4439 10.9772C36.6022 11.4319 36.0895 11.8256 35.6911 11.5554L34.3419 10.6405C33.8335 10.2958 33.1665 10.2958 32.6581 10.6405L31.3089 11.5554C30.9105 11.8256 30.3978 11.4319 30.5561 10.9772L30.9951 9.71599C31.2185 9.07434 30.9827 8.36266 30.4204 7.98135L29.3429 7.25071C28.9352 6.9742 29.1309 6.33688 29.6235 6.33688H31.1054C31.7437 6.33688 32.3122 5.93289 32.522 5.33004L33.0278 3.87721Z" fill="#FFBA52" stroke="#F9A354"/>
<path d="M19.5245 4.08156C19.6741 3.6209 20.3259 3.6209 20.4755 4.08156L20.8716 5.30041C21.0724 5.91844 21.6483 6.33688 22.2981 6.33688H23.5797C24.0641 6.33688 24.2655 6.95669 23.8736 7.24139L22.8368 7.99468C22.3111 8.37665 22.0911 9.0537 22.2919 9.67173L22.6879 10.8906C22.8376 11.3512 22.3103 11.7343 21.9185 11.4496L20.8817 10.6963C20.3559 10.3143 19.6441 10.3143 19.1183 10.6963L18.0815 11.4496C17.6897 11.7343 17.1624 11.3512 17.3121 10.8906L17.7081 9.67173C17.9089 9.05369 17.6889 8.37664 17.1632 7.99468L16.1264 7.24139C15.7345 6.95669 15.9359 6.33688 16.4203 6.33688H17.7019C18.3517 6.33688 18.9276 5.91844 19.1284 5.30041L19.5245 4.08156Z" fill="#FFBA52" stroke="#F9A354"/>
<path d="M6.52447 4.08156C6.67415 3.6209 7.32585 3.6209 7.47553 4.08156L7.87156 5.30041C8.07237 5.91844 8.6483 6.33688 9.29814 6.33688H10.5797C11.0641 6.33688 11.2655 6.95669 10.8736 7.24139L9.83679 7.99468C9.31106 8.37665 9.09107 9.0537 9.29188 9.67173L9.68791 10.8906C9.83759 11.3512 9.31035 11.7343 8.91849 11.4496L7.88168 10.6963C7.35595 10.3143 6.64405 10.3143 6.11832 10.6963L5.08151 11.4496C4.68965 11.7343 4.16241 11.3512 4.31209 10.8906L4.70812 9.67173C4.90893 9.05369 4.68894 8.37664 4.16321 7.99468L3.12639 7.24139C2.73454 6.95669 2.93592 6.33688 3.42029 6.33688H4.70186C5.3517 6.33688 5.92763 5.91844 6.12844 5.30041L6.52447 4.08156Z" fill="#FFBA52" stroke="#F9A354"/>
</svg>
