<svg width="26" height="26" viewBox="0 0 26 26" fill="none" xmlns="http://www.w3.org/2000/svg">
<circle cx="13" cy="13" r="12.5" fill="#427EB2" stroke="#1B578B"/>
<path d="M20.6664 15.4836C20.5544 15.3238 19.9387 15.0574 19.9387 15.0574C19.7147 14.9508 17.8115 14.0984 17.4756 13.9385C17.1957 13.832 16.8598 13.7254 16.524 14.1516C16.3 14.4713 15.6283 15.2172 15.4044 15.4836C15.2365 15.6434 15.1245 15.6967 14.7886 15.5369C14.7326 15.5369 13.1093 14.8443 11.9337 13.8852C10.9261 13.0328 10.1984 11.9672 9.97448 11.5943C9.80654 11.3279 9.9185 11.168 10.1424 11.0082C10.2544 10.9016 10.7582 10.2623 10.8142 10.209C10.8701 10.1025 11.0381 9.83607 11.0381 9.83607C11.206 9.56967 11.094 9.30328 11.0381 9.14344C10.9261 9.03689 9.97448 6.85246 9.9185 6.63934C9.6386 6 9.35871 6 9.07882 6C8.96686 6 7.67936 6 7.28751 6.42623L7.23153 6.47951C6.83968 6.90574 6 7.70492 6 9.30328C6 9.67623 6.05598 10.0492 6.16794 10.4754C6.39185 11.2213 6.83968 12.0738 7.45544 12.873C7.45544 12.873 8.40708 14.0984 8.8549 14.6311C10.3103 16.2295 11.9337 17.4016 13.6131 18.041C15.7403 18.8402 16.6359 19 17.1397 19C17.3636 19 17.8115 18.8934 17.9234 18.8934C18.5952 18.8402 20.1066 18.0943 20.4425 17.2418C20.7783 16.3893 20.7783 15.6434 20.6664 15.4836Z" fill="white"/>
</svg>
