<?xml version="1.0" standalone="no"?>
<!DOCTYPE svg PUBLIC "-//W3C//DTD SVG 20010904//EN"
 "http://www.w3.org/TR/2001/REC-SVG-20010904/DTD/svg10.dtd">
<svg version="1.0" xmlns="http://www.w3.org/2000/svg"
 width="1200.000000pt" height="1267.000000pt" viewBox="0 0 1200.000000 1267.000000"
 preserveAspectRatio="xMidYMid meet">

<g transform="translate(0.000000,1267.000000) scale(0.100000,-0.100000)"
fill="#000000" stroke="none">
<path d="M5330 12664 c-1338 -80 -2322 -296 -3135 -688 -622 -300 -1013 -627
-1354 -1131 -514 -759 -771 -1718 -832 -3100 -16 -372 -7 -1517 15 -1773 55
-664 152 -1165 316 -1646 205 -597 482 -1062 870 -1460 421 -431 910 -726
1543 -932 l147 -47 0 -676 c0 -539 3 -695 15 -771 30 -198 101 -336 211 -409
l47 -31 202 0 201 0 62 37 c99 61 194 147 335 302 73 80 182 199 242 265 304
329 580 640 710 799 l80 98 95 -5 c52 -3 178 -11 280 -18 245 -15 1052 -15
1310 0 582 35 1049 89 1540 179 334 61 1003 239 1275 340 901 333 1556 919
1965 1758 287 589 418 1155 510 2212 18 215 20 312 20 1232 0 830 -3 1024 -15
1147 -136 1301 -512 2286 -1116 2919 -539 564 -1510 1006 -2699 1229 -417 78
-846 128 -1355 156 -187 11 -1358 21 -1485 14z m1050 -894 c379 -11 556 -22
850 -51 1024 -101 1932 -364 2536 -734 325 -199 594 -502 804 -907 313 -605
489 -1354 550 -2353 13 -209 13 -899 0 -1146 -28 -529 -84 -1076 -141 -1364
-147 -742 -430 -1305 -870 -1730 -360 -348 -774 -566 -1328 -701 -103 -24
-256 -62 -341 -84 -760 -192 -1838 -305 -2730 -286 -162 3 -335 9 -385 12
l-90 6 -215 -259 c-744 -893 -1418 -1663 -1526 -1743 -22 -16 -61 -35 -87 -42
-43 -11 -49 -10 -74 8 -56 42 -55 13 -51 1223 l3 1113 -106 33 c-878 275
-1494 818 -1850 1630 -192 438 -308 948 -365 1605 -33 383 -29 1527 7 1994 92
1190 379 1996 933 2619 34 38 103 104 154 148 626 532 1632 870 2927 984 396
35 802 42 1395 25z"/>
</g>
</svg>
