<svg width="25" height="28" viewBox="0 0 25 28" fill="none" xmlns="http://www.w3.org/2000/svg">
<g style="mix-blend-mode:luminosity">
<path d="M18.126 23.311L17.9671 22.8369C17.6591 22.9402 14.5134 23.7677 10.4038 23.4081L10.1428 23.3853L9.97552 23.5869C9.83204 23.7598 9.696 23.9239 9.56685 24.0797C8.55461 25.3009 7.96635 26.0107 7.5453 26.4055C7.31177 26.6244 7.17873 26.6974 7.09972 26.7222C7.04366 26.7398 6.98179 26.7449 6.84347 26.6997L6.8394 26.6984C6.74344 26.6679 6.64346 26.5595 6.57789 26.301C6.54877 26.1862 6.53527 26.0722 6.5295 25.9847C6.52667 25.9418 6.52583 25.9073 6.52566 25.8848C6.52557 25.8736 6.52565 25.8656 6.52572 25.8611L6.52573 25.8592L6.52575 25.8589L6.52576 25.8586L6.52577 25.8581L6.5258 25.8575L6.5258 25.8572L6.52607 25.8504L6.52608 25.8415L6.5317 23.0989L6.53273 22.5978H6.09897C3.28357 21.7469 1.89451 19.8096 1.20325 17.6238C0.497431 15.392 0.531479 12.9329 0.567611 11.1579C0.638711 7.66608 1.28852 4.97559 3.01324 3.1703C3.96721 2.26012 5.3855 1.57834 7.07163 1.13089C8.7563 0.683816 10.672 0.480413 12.5761 0.501481C14.48 0.522548 16.3559 0.767878 17.9598 1.20772C19.4347 1.61217 20.6394 2.17013 21.4321 2.83548L21.6554 3.03823C23.6151 4.81752 24.8313 8.91034 24.0307 15.7083L24.0306 15.7087C23.6595 18.886 22.3398 20.5732 21.0584 21.5108C19.9987 22.2861 18.9672 22.5623 18.3421 22.7297C18.1913 22.7701 18.0641 22.8041 17.9659 22.8373L18.126 23.311ZM18.126 23.311C18.2015 23.2855 18.3084 23.2571 18.4411 23.222C19.7936 22.8635 23.823 21.7957 24.5273 15.7667M18.126 23.311C17.7607 23.4334 14.5461 24.2725 10.3603 23.9062C10.2143 24.0821 10.0756 24.2494 9.94372 24.4086C7.81313 26.9796 7.44599 27.4227 6.68813 27.175C5.9845 26.9516 6.02608 25.8405 6.02608 25.8405L24.5273 15.7667M24.5273 15.7667C25.289 9.29917 24.2624 5.08839 22.3282 3.00173M24.5273 15.7667L22.3282 3.00173M22.3282 3.00173L21.9915 2.66805L22.3282 3.00173Z" fill="#9C9BC2" stroke="#D0D0D0"/>
<path d="M24.5273 15.7667C25.3321 8.93338 24.1406 4.6193 21.9915 2.66805L21.9926 2.66691C18.5239 -0.6653 6.80952 -1.1585 2.65968 2.81658C0.796073 4.76103 0.139651 7.61478 0.0677149 11.1477C-0.00422166 14.6817 -0.0896464 21.3019 6.02608 23.0978H6.0317L6.02608 25.8405C6.02608 25.8405 5.9845 26.9516 6.68813 27.175C7.49292 27.438 7.85709 26.9221 10.3603 23.9062C14.5461 24.2725 17.7607 23.4334 18.126 23.311C18.9713 23.0253 23.754 22.387 24.5273 15.7667ZM10.7728 21.9765C10.7728 21.9765 8.12348 25.3087 7.29959 26.1738C7.02982 26.455 6.73421 26.4289 6.73871 25.8711C6.73871 25.5049 6.75894 21.3178 6.75894 21.3178C1.57389 19.8189 1.87962 14.1817 1.93582 11.2327C1.99202 8.28259 2.52705 5.86648 4.10515 4.23948C7.74582 0.796158 18.0159 1.566 20.6326 4.04674C23.8315 6.9073 22.6929 14.989 22.6996 15.2645C22.0421 20.7906 18.1665 21.1409 17.4539 21.3801C17.1493 21.4822 14.3224 22.2158 10.7728 21.9765Z" fill="#424C59"/>
<path d="M12.2385 4.88672C11.8058 4.88672 11.8058 5.56699 12.2385 5.57266C15.5959 5.59874 18.361 7.9593 18.3913 12.2892C18.3913 12.7462 19.0545 12.7405 19.0489 12.2836H19.0477C19.0118 7.61802 15.9927 4.9128 12.2385 4.88672Z" fill="white"/>
<path d="M16.655 11.5718C16.6449 12.0231 17.307 12.0446 17.3126 11.5877C17.3676 9.01511 15.7952 6.89606 12.8401 6.6727C12.4074 6.64095 12.3624 7.3269 12.7941 7.35864C15.3568 7.55479 16.7067 9.31897 16.655 11.5718Z" fill="white"/>
<path d="M15.9464 14.4981C15.3912 14.1739 14.8258 14.3757 14.592 14.6943L14.103 15.3326C13.8546 15.6569 13.3904 15.6138 13.3904 15.6138C10.0027 14.7102 9.09671 11.1342 9.09671 11.1342C9.09671 11.1342 9.05512 10.65 9.36535 10.3904L9.97681 9.88021C10.2825 9.63531 10.4759 9.04573 10.1645 8.46637C9.33275 6.95049 8.77412 6.42781 8.48974 6.02645C8.19076 5.64889 7.74115 5.56386 7.27357 5.81896H7.26345C6.29118 6.39266 5.22675 7.46636 5.56732 8.57181C6.14843 9.73735 7.21624 13.4528 10.6197 16.2601C12.2192 17.5877 14.7505 18.9483 15.825 19.2623L15.8351 19.2782C16.894 19.6342 17.9235 18.5186 18.4732 17.5084V17.5004C18.7171 17.0118 18.6362 16.5492 18.2799 16.2464C17.6482 15.6251 16.695 14.9392 15.9464 14.4981Z" fill="white"/>
<path d="M13.3034 9.20327C14.3836 9.26676 14.9074 9.83593 14.9636 11.0049C14.9838 11.4618 15.6413 11.43 15.6211 10.9731C15.5492 9.44704 14.7601 8.59669 13.3394 8.51733C12.9066 8.49125 12.8662 9.17719 13.3034 9.20327Z" fill="white"/>
</g>
</svg>
